<?xml version="1.0" standalone="no"?>
<!DOCTYPE svg PUBLIC "-//W3C//DTD SVG 1.1//EN" "http://www.w3.org/Graphics/SVG/1.1/DTD/svg11.dtd" >
<!--
2013-9-30: Created.
-->
<svg>
<metadata>
Created by iconfont
</metadata>
<defs>

<font id="iconfont" horiz-adv-x="1024" >
  <font-face
    font-family="iconfont"
    font-weight="500"
    font-stretch="normal"
    units-per-em="1024"
    ascent="896"
    descent="-128"
  />
    <missing-glyph />
    
    <glyph glyph-name="weizhi" unicode="&#58888;" d="M500.012 624.179c-148.632 0-269.051-120.424-269.051-269.03 0-65.13 23.149-124.912 61.699-171.4l207.352-281.86 207.286 281.86c38.539 46.488 61.74 106.271 61.74 171.4C769.038 503.755 648.578 624.179 500.012 624.179zM500.012 280.573c-47.796 0-86.494 38.711-86.494 86.522 0 47.796 38.698 86.495 86.494 86.495 47.771 0 86.471-38.699 86.471-86.495C586.482 319.284 547.782 280.573 500.012 280.573z"  horiz-adv-x="1000" />

    
    <glyph glyph-name="jiantou" unicode="&#58904;" d="M830.687738 292.928818c0-9.614985-3.933589-17.949814-11.799744-25.007557-7.867178-7.05672-17.222243-10.56052-28.065196-10.512425L232.716714 257.408837c-10.789741 0-20.144806 3.5038-28.064172 10.512425-7.919367 7.009647-11.852956 15.344476-11.799744 25.007557 0.053212 9.660011 3.986801 17.996886 11.799744 25.00551l279.05253 248.641917c7.867178 7.009647 17.22122 10.513448 28.065196 10.513448 10.842952 0 20.196994-3.504824 28.064172-10.513448l279.05253-248.641917C826.754149 310.925704 830.687738 302.588829 830.687738 292.928818z"  horiz-adv-x="1024" />

    
    <glyph glyph-name="xin" unicode="&#58981;" d="M511.301082 33.176866l-31.807427 24.410969c-187.147354 144.984069-300.323996 232.270041-364.6787 346.18551C67.473741 487.360066 54.898331 570.207959 77.8296 642.699993c19.23304 60.656475 63.614853 109.47739 124.271328 137.586588 31.067576 14.054087 65.094554 21.451568 100.601232 21.451568 85.067444 0 165.695786-42.163285 208.598922-107.99769 43.642986 65.834404 124.271328 107.99769 209.338772 107.99769 35.506678 0 69.532633-7.397481 100.601232-21.451568 60.656475-28.109198 105.039311-76.930113 124.271328-137.586588 23.671119-72.492034 10.355859-155.339928-36.985356-238.927671-64.354704-113.915469-178.271196-201.941292-366.158401-346.925361L511.301082 33.176866zM302.70216 768.451022c-31.067576 0-59.916625-5.91778-86.546122-18.49319-51.780317-24.410969-90.245374-65.834404-106.519012-117.614721-20.711717-62.876026-8.876158-136.846738 34.026978-212.297151 61.396325-107.99769 172.353416-194.544835 357.281219-336.569502l11.095709-8.876158 10.355859 8.136308c184.927803 142.764518 295.884894 228.571812 357.281219 336.569502 42.903136 75.450413 54.738695 148.682297 34.026978 212.297151-17.013489 51.780317-54.738695 93.203752-106.519012 117.614721-26.629497 12.57541-56.218396 18.49319-86.546122 18.49319-83.587744 0-161.257707-46.602388-193.804984-116.13502l-15.533788-31.807427-15.533788 32.547277C463.959867 721.849658 386.289903 768.451022 302.70216 768.451022z"  horiz-adv-x="1024" />

    
    <glyph glyph-name="arrow-right-copy-copy" unicode="&#58883;" d="M347.687 751.812l-52.761-52.238 313.928-316.082-316.568-313.42 52.314-52.673 369.322 365.663z"  horiz-adv-x="1024" />

    
    <glyph glyph-name="xin1" unicode="&#58945;" d="M700.856275 740.457458c-74.768891 0-144.295384-72.696696-190.046381-127.260405C465.073224 667.773042 395.563104 740.457458 320.754305 740.457458c-134.789892 0-244.443291-105.780185-244.443291-235.799424 0-77.56968 39.277562-131.98808 70.844511-175.712931 91.752704-126.998439 322.464249-285.038872 332.234777-291.701618 9.410324-6.414083 20.424168-9.629311 31.401174-9.629311 11.005658 0 21.998013 3.215228 31.397081 9.629311 9.782807 6.662747 240.514819 164.703179 332.23887 291.701618 31.586392 43.723827 70.873164 98.143251 70.873164 175.712931C945.299567 634.678296 835.645145 740.457458 700.856275 740.457458L700.856275 740.457458zM700.856275 740.457458"  horiz-adv-x="1024" />

    
    <glyph glyph-name="tuichu" unicode="&#58926;" d="M473.946312 722.218048c0 29.457916 24.090675 53.597709 53.54859 53.597709 29.458939 0 53.597709-24.139793 53.597709-53.597709l0-294.681486c0-29.457916-24.13877-53.597709-53.597709-53.597709-29.457916 0-53.54859 24.139793-53.54859 53.597709L473.946312 722.218048 473.946312 722.218048zM527.494902 25.611563c-192.31812 0-348.278171 155.964144-348.278171 348.279195 0 144.880715 88.524173 269.019013 214.387765 321.529971l0-121.033587c-64.681138-43.25106-107.195418-116.850311-107.195418-200.496383 0-133.151579 107.932198-241.131873 241.135966-241.131873 133.251863 0 241.185085 107.928105 241.185085 241.131873 0 83.59593-42.612517 157.193135-107.293655 200.496383L661.436474 695.469847c125.960807-52.511981 214.388788-176.650279 214.388788-321.530994C875.824239 181.575708 719.863165 25.611563 527.494902 25.611563L527.494902 25.611563z"  horiz-adv-x="1024" />

    
    <glyph glyph-name="jiantouarrow486" unicode="&#59050;" d="M171.15136 554.99776l684.02176 0-342.016-341.99552L171.15136 554.99776z"  horiz-adv-x="1024" />

    
    <glyph glyph-name="xiezilou" unicode="&#58930;" d="M932.835697-60.908976 98.061386-60.908976 98.061386 561.729867l233.013985 0 0.86367 91.425246 165.470659 0-1.731434 184.798866 56.81396-1.186012 0-182.958962 168.263262-3.458775 0.001023-214.574007 212.08021 0L932.836721-60.908976zM113.410979-45.559383l804.075125 0L917.486104 420.425607l-212.08021 0-0.001023 214.886115-168.263262 3.458775L537.14161 821.734576l-25.966395 0.542352 1.727341-184.472432L347.144348 637.804497l-0.864694-91.425246L113.410979 546.379251 113.410979-45.559383zM228.989321-28.054707l-98.252745 0 0.890276 551.817867 206.019167 0.909719 11.342326-8.029884 1.76725-542.877241-86.165452-1.050935-0.865717 132.044362L228.989321 104.759181 228.989321-28.054707zM146.111752-12.705114l67.527976 0 0 132.814911 65.335031 0 0.86367-131.857097 55.518454 0.677429-1.691525 519.754614-0.871857 0.617054-185.841615-0.820692L146.111752-12.705114zM678.389588-25.601842l-111.097284 2.007727L567.292304 104.760205l-95.096868 0 0-129.356137-98.073666 0L374.121769 617.053893l304.268842-1.821485L678.390611-25.601842zM582.641897-8.518768l80.398098-1.453095L663.039995 599.974913l-273.569656 1.63729 0-610.858542 67.37448 0 0 129.356137 125.796054 0L582.640873-8.518768zM896.665917-25.574213l-74.873268 1.088798L821.792649 104.760205l-39.873126 0 0-127.627772-76.56991 0L705.349613 396.170181l187.931207 0 0-7.649214 1.622964 0.00614L896.665917-25.574213zM837.142242-9.357879l44.10859-0.641613-1.662873 390.819057-158.888753 0 0-388.338562 45.870724 0L766.56993 120.109798l70.572312 0L837.142242-9.357879zM837.142242 159.983947l-70.572312 0 0 70.460772 70.572312 0L837.142242 159.983947zM781.919523 175.33354l39.873126 0 0 39.761586-39.873126 0L781.919523 175.33354zM582.641897 159.983947 456.845843 159.983947l0 70.460772 125.796054 0L582.641897 159.983947zM472.195435 175.33354l95.096868 0 0 39.761586-95.096868 0L472.195435 175.33354zM278.969643 159.983947l-70.572312 0 0 70.460772 70.572312 0L278.969643 159.983947zM223.7459 175.33354l39.873126 0 0 39.761586-39.873126 0L223.7459 175.33354zM836.277548 270.318868l-70.573335 0 0 70.573335 70.573335 0L836.277548 270.318868zM781.054829 285.668461l39.874149 0 0 39.874149-39.874149 0L781.054829 285.668461zM582.641897 270.318868 456.845843 270.318868l0 70.573335 125.796054 0L582.641897 270.318868zM472.195435 285.668461l95.096868 0 0 39.874149-95.096868 0L472.195435 285.668461zM278.969643 270.318868l-70.572312 0 0 70.573335 70.572312 0L278.969643 270.318868zM223.7459 285.668461l39.873126 0 0 39.874149-39.873126 0L223.7459 285.668461zM582.641897 380.820588 456.845843 380.820588l0 70.518077 125.796054 0L582.641897 380.820588zM472.195435 396.170181l95.096868 0 0 39.818891-95.096868 0L472.195435 396.170181zM278.969643 380.820588l-70.572312 0 0 70.518077 70.572312 0L278.969643 380.820588zM223.7459 396.170181l39.873126 0 0 39.818891-39.873126 0L223.7459 396.170181zM582.641897 491.156532 456.845843 491.156532l0 70.573335 125.796054 0L582.641897 491.156532zM472.195435 506.506125l95.096868 0 0 39.874149-95.096868 0L472.195435 506.506125z"  horiz-adv-x="1024" />

    
    <glyph glyph-name="user-group" unicode="&#58950;" d="M737.080-18.091h-640.625c-9.928 0-18.802 6.175-22.255 15.478-5.92 16.011-17.366 57.46 4.252 96.616 14.574 26.39 63.67 46.085 142.574 76.043 30.677 11.643 75.057 28.499 91.647 38.994-4.043 6.928-11.724 17.307-17.759 25.464-28.023 37.858-70.377 95.088-70.377 173.632 0 143.321 75.44 235.929 192.179 235.929 0 0 0.035 0 0.082 0 116.763 0 192.202-92.609 192.202-235.929 0-78.544-42.355-135.761-70.377-173.632-6.035-8.157-13.728-18.536-17.771-25.464 16.589-10.496 60.971-27.352 91.658-38.994 78.904-29.957 128-49.652 142.562-76.043 21.595-39.121 10.172-80.583 4.263-96.594-3.441-9.313-12.315-15.5-22.255-15.5zM323.643 29.361h395.377c2.119 11.932 2.34 27.525-5.491 41.717-9.222 13.357-77.224 39.179-117.863 54.599-88.196 33.48-124.014 48.239-124.826 77.699-0.51 18.617 12.141 35.705 29.645 59.361 25.765 34.823 61.064 82.506 61.064 145.4 0 44.208-10.438 188.479-144.752 188.479-0.046 0.011-0.070 0.006-0.070 0.006-134.303-0.006-144.741-144.277-144.741-188.484 0-62.905 35.299-110.588 61.064-145.412 17.505-23.643 30.155-40.732 29.645-59.336-0.823-29.472-36.643-44.231-124.837-77.71-40.628-15.419-108.641-41.242-118.003-54.831-7.739-14.042-7.496-29.576-5.364-41.485l209.152 0zM475.947 673.235c-4.635 0-9.303 1.35-13.416 4.171-10.797 7.42-13.542 22.19-6.117 32.987 34.025 49.525 85.449 75.701 148.737 75.701 13.102 0 23.726-10.623 23.726-23.725 0-13.102-10.624-23.726-23.726-23.726-47.612 0-84.498-18.541-109.627-55.114-4.598-6.697-12.024-10.293-19.577-10.293zM925.516 123.939h-113.588c-13.103 0-23.726 10.611-23.726 23.725 0 13.091 10.623 23.726 23.726 23.726h95.528c2.12 11.932 2.34 27.525-5.49 41.717-9.222 13.357-77.236 39.179-117.864 54.599-88.195 33.481-124.014 48.24-124.837 77.687-0.51 18.628 12.141 35.715 29.646 59.36 25.775 34.824 61.075 82.512 61.075 145.406 0 44.219-10.438 188.484-144.752 188.484-13.102 0-23.725 10.623-23.725 23.726 0 13.102 10.623 23.725 23.725 23.725 116.763 0 192.202-92.609 192.202-235.936 0-78.539-42.354-135.767-70.388-173.626-6.025-8.156-13.716-18.535-17.759-25.464 16.59-10.495 60.971-27.352 91.647-38.993 78.904-29.958 128-49.652 142.574-76.043 21.594-39.121 10.171-80.583 4.263-96.594-3.442-9.314-12.317-15.5-22.257-15.5z"  horiz-adv-x="1024" />

    
    <glyph glyph-name="jiantou33" unicode="&#59183;" d="M638.613 128.107l-250.667 250.773 250.667 250.667z"  horiz-adv-x="1024" />

    
    <glyph glyph-name="haofangtuo400iconfontershoufangchengjiao" unicode="&#58999;" d="M530.102272 842.422272c-9.998336 9.998336-26.206208 9.998336-36.20352 0l-440.32-440.32c-9.997312-9.998336-9.997312-26.206208 0-36.20352 9.998336-9.998336 26.206208-9.998336 36.20352 0L512 788.11648l422.217728-422.217728C939.216896 360.89856 945.768448 358.4 952.32 358.4s13.103104 2.49856 18.102272 7.497728c9.997312 9.998336 9.997312 26.206208 0 36.20352L530.102272 842.422272zM183.051264 337.548288c-14.138368 0-25.6-11.461632-25.6-25.6L157.451264-56.32c0-14.138368 11.461632-25.6 25.6-25.6l658.895872 0c14.138368 0 25.6 11.461632 25.6 25.6L867.547136 311.948288c0 14.138368-11.461632 25.6-25.6 25.6s-25.6-11.461632-25.6-25.6L816.347136-30.72 208.651264-30.72 208.651264 311.948288C208.651264 326.085632 197.189632 337.548288 183.051264 337.548288zM419.857408 387.004416c4.999168-4.999168 11.55072-7.497728 18.102272-7.497728s13.103104 2.49856 18.102272 7.497728c9.997312 9.997312 9.997312 26.207232 0 36.20352l-67.584 67.584c-9.998336 9.998336-26.206208 9.998336-36.20352 0-9.997312-9.997312-9.997312-26.207232 0-36.20352L419.857408 387.004416zM369.664 213.305344c-14.138368 0-25.6-11.461632-25.6-25.6s11.461632-25.6 25.6-25.6l116.736 0L486.4 46.08c0-14.138368 11.461632-25.6 25.6-25.6s25.6 11.461632 25.6 25.6L537.6 162.105344l116.736 0c14.138368 0 25.6 11.461632 25.6 25.6s-11.461632 25.6-25.6 25.6L537.6 213.305344l0 92.16 116.736 0c14.138368 0 25.6 11.461632 25.6 25.6s-11.461632 25.6-25.6 25.6l-80.53248 0 97.923072 97.923072c9.997312 9.997312 9.997312 26.207232 0 36.20352-9.997312 9.998336-26.207232 9.998336-36.20352 0L501.39648 356.665344 369.664 356.665344c-14.138368 0-25.6-11.461632-25.6-25.6s11.461632-25.6 25.6-25.6l116.736 0 0-92.16L369.664 213.305344z"  horiz-adv-x="1024" />

    
    <glyph glyph-name="haofangtuo400iconfontwodeershoufang" unicode="&#59041;" d="M882.796544 133.48352c-10.279936 7.967744-25.074688 6.094848-33.043456-4.187136-7.968768-10.279936-6.093824-25.073664 4.186112-33.043456C901.494784 59.395072 928.768 3.78368 928.768-56.32c0-13.006848 10.544128-23.552 23.552-23.552s23.552 10.545152 23.552 23.552c0 37.748736-8.518656 73.888768-25.319424 107.415552C934.54336 83.047424 911.113216 111.536128 882.796544 133.48352zM736.003072 183.656448c-64.073728 0-124.311552-24.963072-169.617408-70.291456C521.083904 68.03968 496.134144 7.778304 496.134144-56.32c0-13.006848 10.544128-23.552 23.552-23.552s23.552 10.545152 23.552 23.552c0 106.349568 86.473728 192.872448 192.764928 192.872448 83.149824 0 150.797312 67.67616 150.797312 150.859776S819.152896 438.272 736.003072 438.272c-83.149824 0-150.797312-67.67616-150.797312-150.859776 0-28.179456 7.822336-55.671808 22.621184-79.507456 6.8608-11.051008 21.382144-14.445568 32.432128-7.585792 11.051008 6.8608 14.446592 21.382144 7.585792 32.432128-10.1632 16.36864-15.535104 35.269632-15.535104 54.66112 0 57.21088 46.516224 103.755776 103.693312 103.755776 57.177088 0 103.693312-46.544896 103.693312-103.755776S793.18016 183.656448 736.003072 183.656448zM530.102272 842.422272c-9.998336 9.998336-26.206208 9.998336-36.20352 0l-440.32-440.32c-9.997312-9.998336-9.997312-26.206208 0-36.20352 9.998336-9.998336 26.206208-9.998336 36.20352 0L512 788.11648l422.217728-422.217728C939.216896 360.89856 945.768448 358.4 952.32 358.4s13.103104 2.49856 18.102272 7.497728c9.997312 9.998336 9.997312 26.206208 0 36.20352L530.102272 842.422272zM183.051264 337.548288c-14.138368 0-25.6-11.461632-25.6-25.6L157.451264-56.32c0-14.138368 11.461632-25.6 25.6-25.6l245.76 0c14.138368 0 25.6 11.461632 25.6 25.6s-11.461632 25.6-25.6 25.6l-220.16 0L208.651264 311.948288C208.651264 326.085632 197.189632 337.548288 183.051264 337.548288z"  horiz-adv-x="1024" />

    
    <glyph glyph-name="jiantou1" unicode="&#58892;" d="M398.499 659.5l274.256-274.256-274.256-274.256z"  horiz-adv-x="1024" />

    
    <glyph glyph-name="liebiao" unicode="&#58886;" d="M897.427256 646.996856 126.57172 646.996856c-34.673707 0-62.73174 28.088732-62.73174 62.73174s28.058033 62.73174 62.73174 62.73174l770.855536 0c34.673707 0 62.73174-28.088732 62.73174-62.73174S932.101987 646.996856 897.427256 646.996856zM897.427256 321.26826 126.57172 321.26826c-34.673707 0-62.73174 28.088732-62.73174 62.73174s28.058033 62.73174 62.73174 62.73174l770.855536 0c34.673707 0 62.73174-28.088732 62.73174-62.73174S932.101987 321.26826 897.427256 321.26826zM897.427256-4.460336 126.57172-4.460336c-34.673707 0-62.73174 28.088732-62.73174 62.73174 0 34.643008 28.058033 62.73174 62.73174 62.73174l770.855536 0c34.673707 0 62.73174-28.088732 62.73174-62.73174C960.16002 23.628396 932.101987-4.460336 897.427256-4.460336z"  horiz-adv-x="1024" />

    
    <glyph glyph-name="mokuai" unicode="&#58931;" d="M737.148 354.08h-256.85V609.927c0 17.673-14.327 32-32 32h-288.85c-17.673 0-32-14.327-32-32v-576.698c0-17.673 14.327-32 32-32h577.7c17.673 0 32 14.327 32 32V322.08c0 17.673-14.327 32-32 32z m-320.85 223.847V354.08h-224.85V577.927h224.85z m-224.85-288.85h224.85v-223.848h-224.85V289.077z m513.7-223.848h-224.85V290.08h224.85v-224.851zM843.523 749.302h-280c-17.132 0-31.02-13.888-31.02-31.02v-280c0-17.132 13.888-31.02 31.02-31.02h280c17.132 0 31.02 13.888 31.02 31.02v280c0 17.132-13.888 31.02-31.02 31.02z m-31.019-280H594.543V687.263h217.961v-217.961zM671.523 610.282h64v-64h-64z"  horiz-adv-x="1024" />

    
    <glyph glyph-name="shezhi" unicode="&#58884;" d="M905.86 467.979l-0.002 0-71.797 15.945c-5.594 17.868-12.887 34.998-21.324 51.473l38.849 64.668c14.509 23.2 21.803 57.282 0 79.129l-39.588 39.547c-10.662 10.708-24.994 15.206-39.461 15.206-14.985 0-30.151-4.895-41.465-12.759l-62.972-40.112c-16.343 8.477-33.384 15.731-51.125 21.499l-16.121 72.621c-4.806 26.654-28.1 55.492-58.989 55.492l-55.932 0c-30.897 0-49.815-29.276-55.932-55.93l-17.963-71.746c-18.917-6.03-37.143-13.761-54.445-22.897l-64.538 41.075c-11.361 7.865-26.481 12.759-41.512 12.759-14.42 0-28.752-4.497-39.46-15.206l-39.543-39.547c-21.848-21.846-14.507-55.93 0-79.128l40.854-68.078c-7.644-15.469-14.461-31.374-19.705-48.064l-71.75-15.946c-26.654-4.812-55.495-28.099-55.495-58.995l0-55.93c0-30.889 29.277-49.813 55.932-55.93l72.665-18.13c5.029-15.428 11.273-30.237 18.4-44.569l-40.899-68.165c-14.508-23.157-21.807-57.24 0-79.087l39.588-39.548c10.663-10.704 24.994-15.248 39.455-15.248 14.991 0 30.151 4.894 41.471 12.758l64.672 41.249c17.432-9.217 35.744-17.041 54.795-23.071l17.917-71.573c6.118-26.653 25.035-55.931 55.932-55.931l55.933 0c30.89 0 54.184 28.84 58.989 55.493l16.122 72.838c17.565 5.685 34.433 12.853 50.559 21.194l63.1-40.199c11.313-7.866 26.481-12.76 41.465-12.76 14.467 0 28.8 4.546 39.461 15.248l39.588 39.548c21.803 21.847 14.509 55.93 0 79.089l-38.89 64.757c7.819 15.38 14.596 31.371 20.055 47.976l72.671 18.132c26.655 6.115 55.932 25.039 55.932 55.93l0 55.93C961.354 439.879 932.516 463.167 905.86 467.979zM514.684 247.971c-74.593 0-135.333 60.562-135.333 134.931s60.739 134.889 135.333 134.889c74.588 0 135.287-60.52 135.287-134.889S589.272 247.971 514.684 247.971z"  horiz-adv-x="1024" />

    
    <glyph glyph-name="Set-up" unicode="&#58901;" d="M555.733 815.531c13.611 0 25.643-9.116 26.823-20.324l8.647-82.176 18.091-5.461c45.405-13.963 84.732-35.699 118.442-63.922l-39.85 29.277 64.284 52.025c3.456 2.802 7.765 4.224 12.786 4.224 7.339 0 15.019-3.3 20.551-8.818l62.436-62.421c9.628-9.628 11.676-24.576 4.594-33.337l-52.039-64.284 8.946-16.654c20.35-37.107 34.128-80.624 38.534-126.874l-7.373 46.845 82.19-8.647c11.207-1.18 20.324-13.212 20.324-26.823v-88.277c0-13.611-9.116-25.643-20.324-26.823l-82.162-8.661-5.461-18.091c-13.963-45.405-35.699-84.732-63.922-118.442l29.262 39.85 52.039-64.284c7.083-8.761 5.020-23.708-4.608-33.337l-62.421-62.436c-5.518-5.518-13.198-8.818-20.537-8.818-5.035 0-9.33 1.422-12.8 4.224l-64.284 52.025-16.654-8.946c-37.203-20.387-80.829-34.191-127.192-38.61l47.163 7.449-1.977-18.802-6.67-63.388c-1.18-11.207-13.227-20.324-26.837-20.324h-88.277c-13.611 0-25.643 9.116-26.823 20.324l-6.684 63.388-1.977 18.788-18.091 5.461c-45.459 13.989-84.833 35.754-118.586 64.011l39.994-29.366-64.284-52.039c-3.331-2.638-7.594-4.232-12.229-4.232-0.201 0-0.401 0.003-0.6 0.009-7.309-0.001-14.989 3.299-20.522 8.831l-62.421 62.421c-9.628 9.628-11.691 24.576-4.594 33.337l52.039 64.299-8.946 16.654c-20.381 37.189-34.182 80.798-38.599 127.145l7.438-47.116-82.19 8.647c-11.207 1.18-20.309 13.227-20.309 26.837v88.277c0 13.611 9.116 25.643 20.309 26.823l82.19 8.647 5.461 18.091c13.963 45.405 35.699 84.732 63.922 118.442l-29.262-39.836-52.039 64.27c-7.083 8.761-5.020 23.723 4.608 33.337l62.421 62.421c5.518 5.518 13.198 8.818 20.551 8.818 5.035 0 9.33-1.422 12.786-4.224l64.299-52.039 16.654 8.946c37.213 20.393 80.851 34.203 127.227 38.626l-47.212-7.465 1.977 18.802 6.67 63.388c1.18 11.207 13.212 20.324 26.837 20.324h88.263M555.733 843.975h-88.277c-28.203 0-52.409-20.11-55.111-45.781l-6.67-63.388c-49.172-15.113-91.762-38.651-128.264-69.219l11.5 81.478c-8.168 6.577-18.668 10.556-30.098 10.556-0.204 0-0.407-0.001-0.61-0.004-14.917 0-29.722-6.257-40.63-17.152l-62.421-62.421c-19.94-19.94-22.841-51.285-6.599-71.353l40.135-49.579c-22.050-40.181-36.977-87.305-41.748-137.39l-49.53 63.549c-25.671-2.702-45.781-26.923-45.781-55.111v-88.277c0-28.203 20.11-52.423 45.781-55.125l63.388-6.67c15.113-49.172 38.651-91.762 69.219-128.264l-81.478 11.5c-16.242-20.068-13.34-51.399 6.599-71.339l62.421-62.421c10.46-10.532 24.925-17.076 40.918-17.154 11.277 0.002 21.887 3.657 30.435 10.555l49.579 40.135c40.181-22.050 87.305-36.977 137.39-41.748l-63.534-49.516c2.702-25.671 26.908-45.781 55.111-45.781h88.277c28.203 0 52.409 20.11 55.125 45.781l6.67 63.388c49.184 15.114 91.785 38.653 128.298 69.223l-11.534-81.468c8.533-6.912 19.143-10.567 30.706-10.567 14.933 0 29.753 6.258 40.647 17.152l62.421 62.436c19.94 19.94 22.841 51.271 6.599 71.339l-40.135 49.579c22.050 40.181 36.977 87.305 41.748 137.39l49.501-63.534c25.685 2.702 45.796 26.908 45.796 55.111v88.277c0 28.203-20.11 52.409-45.781 55.111l-63.388 6.67c-15.131 49.221-38.69 91.854-69.284 128.397l81.544-11.632c16.242 20.068 13.34 51.399-6.599 71.339l-62.436 62.436c-10.46 10.532-24.925 17.076-40.918 17.154-11.292-0.002-21.901-3.657-30.435-10.555l-49.579-40.135c-40.156 22.037-87.253 36.955-137.309 41.721l63.453 49.529c-2.702 25.671-26.908 45.781-55.111 45.781zM511.588 225.408c-87.438 0-158.578 71.154-158.578 158.592s71.14 158.592 158.578 158.592 158.592-71.154 158.592-158.592-71.154-158.592-158.592-158.592zM511.588 514.148c-71.765 0-130.133-58.382-130.133-130.148s58.368-130.148 130.133-130.148 130.148 58.382 130.148 130.148-58.382 130.148-130.148 130.148z"  horiz-adv-x="1024" />

    
    <glyph glyph-name="ziyuan" unicode="&#58972;" d="M514.166791 840.683097v-917.699776h-458.849888v917.699776h458.849888m50.983321 50.983321h-560.81653v-1019.666418h560.81653zM973.016679 509.291511v-586.30819h-407.866567v586.30819h407.866567m50.983321 50.983321h-509.833209v-688.274832h509.833209v688.274832zM845.558377 126.916604v-203.933283h-127.458302v203.933283h127.458302m50.983321 50.983321h-229.424944v-305.899925h229.424944v305.899925zM335.725168 126.916604v-203.933283h-127.458302v203.933283h127.458302m50.983321 50.983321h-229.424944v-305.899925h229.424944v305.899925zM208.266866 738.716455h-50.983321v-484.341548h50.983321v484.341548zM386.708489 738.716455h-50.983321v-484.341548h50.983321v484.341548zM896.541698 432.81653h-229.424944v-50.983321h229.424944v50.983321zM896.541698 305.358228h-229.424944v-50.983321h229.424944v50.983321z"  horiz-adv-x="1024" />

    
    <glyph glyph-name="gongjijindaikuan" unicode="&#58890;" d="M860.244914 896h-752.918002c-33.266661 0-60.233849-26.970258-60.233849-60.233849v-903.506719c0-33.263591 26.968212-60.23078 60.233849-60.230779h421.6349v90.346681h-331.285149c-33.263591 0-60.233849 26.970258-60.233849 60.236919v722.8021c0 33.263591 26.970258 60.233849 60.233849 60.23385h9.041934l-8.748245-10.293438-0.26606-338.726631c-0.027629-23.468504 18.974144-42.496883 42.441625-42.469254l246.023276 0.205685c23.468504 0.030699 42.496883 19.086707 42.527583 42.560328l0.266059 338.754261-8.553816 9.970072h249.490237c33.261545 0 60.231803-26.970258 60.231803-60.23385v-391.520021h90.351798V835.766151c-0.001023 33.263591-26.971281 60.233849-60.237943 60.233849zM288.026414 805.649226h150.5836c-0.027629-17.616216 0-28.764114 0-60.23385H288.026414c0 29.176506-0.030699 30.882358 0 60.23385z m30.117948-301.170271h-30.117948V655.065626h-30.115901v30.116924h90.349751v-30.116924h-30.115902v-150.586671z m150.5836 90.352821h-60.233849v-60.233849h60.233849v-30.118972h-60.233849v30.118972h-30.115901v60.233849h-30.118972v30.116925h30.118972v60.233849h30.115901v-60.233849h60.233849v-30.116925z m0 60.23385h-30.117948v30.116924h30.117948v-30.116924z m0-451.752848H197.676663v-60.231803h271.051299v60.231803zM197.676663 52.728154h271.051299V112.963027H197.676663v-60.234873z m271.051299 240.936421H197.676663v-60.235896h271.051299v60.235896zM998.597959 62.375885L799.426757 251.899356c-8.003278 7.637957-19.271926 10.265808-29.529547 7.887644-10.257621 2.378164-21.523199-0.249687-29.526477-7.887644L541.167808 62.375885c-12.205996-11.649318-12.205996-30.500665 0-42.146912l11.087523-10.529821c12.235672-11.617595 32.027437-11.617595 44.233434 0l22.823821 21.721721v-159.39222h90.349751V-7.505695H830.130036v-120.465652h90.351797v159.390173l22.821775-21.719674c12.205996-11.617595 31.999808-11.617595 44.233434 0l11.062963 10.529821c12.231579 11.646248 12.231579 30.497595-0.002046 42.146912z m-48.001248 201.170742h-60.232826v-60.233849l60.232826-60.231803V263.546627z"  horiz-adv-x="1024" />

    
    <glyph glyph-name="menu" unicode="&#59393;" d="M163.2 688h64v-64h-64zM336 688h524.8v-64H336zM163.2 326.4h64v-64h-64zM336 326.4h524.8v-64H336zM163.2 505.6h64v-64h-64zM336 505.6h524.8v-64H336zM163.2 144h64v-64h-64zM336 144h524.8v-64H336z"  horiz-adv-x="1024" />

    
    <glyph glyph-name="tishi" unicode="&#58893;" d="M909.866667 861.333333C643.6 861.333333 432 649.733333 432 383.466667s211.6-477.866667 477.866667-477.866667 477.866667 211.6 477.866666 477.866667S1176.133333 861.333333 909.866667 861.333333zM944 144.533333c0-20.533333-13.6-34.133333-34.133333-34.133333-20.533333 0-34.133333 13.6-34.133334 34.133333V451.733333c0 20.533333 13.6 34.133333 34.133334 34.133334 20.533333 0 34.133333-13.6 34.133333-34.133334v-307.2z m-34.133333 409.6c-27.333333 0-54.666667 20.533333-54.666667 54.666667 0 27.333333 27.333333 47.733333 54.666667 47.733333s54.666667-20.533333 54.666666-54.666666c0-27.2-27.333333-47.733333-54.666666-47.733334z"  horiz-adv-x="1821" />

    
    <glyph glyph-name="daikuan" unicode="&#59016;" d="M505.018182 288.581818c-165.236364 0-307.2 134.981818-307.2 307.2C197.818182 761.018182 332.8 896 505.018182 896s307.2-134.981818 307.2-307.2c-4.654545-167.563636-139.636364-300.218182-307.2-300.218182z m0 549.236364C372.363636 837.818182 256 723.781818 256 588.8s109.381818-242.036364 242.036364-242.036364S742.4 453.818182 742.4 588.8c6.981818 134.981818-102.4 249.018182-237.381818 249.018182zM518.981818-128c-25.6 0-51.2 6.981818-83.781818 18.618182-18.618182 11.636364-88.436364 44.218182-139.636364 69.818182-18.618182 6.981818-32.581818 11.636364-39.563636 18.618181-11.636364 11.636364-25.6 18.618182-32.581818 18.618182s-11.636364-6.981818-25.6-11.636363L134.981818-58.181818h-13.963636c-4.654545 0-4.654545 6.981818-4.654546 6.981818l-116.363636 256c0 6.981818 0 11.636364 6.981818 18.618182l11.636364 6.981818c13.963636 6.981818 114.036364 51.2 165.236363 76.8 18.618182 6.981818 44.218182 11.636364 69.818182 11.636364 44.218182 0 76.8-18.618182 109.381818-37.236364 0 0 6.981818 0 6.981819-6.981818 18.618182-11.636364 76.8-51.2 83.781818-58.181818s65.163636-32.581818 116.363636-32.581819c44.218182 0 76.8 0 102.4-6.981818s37.236364-25.6 37.236364-58.181818c0-25.6-11.636364-44.218182-44.218182-51.2-18.618182-6.981818-44.218182-6.981818-44.218182-6.981818h-153.6c-18.618182 0-44.218182 6.981818-69.818182 11.636364l-58.181818 11.636363h-6.981818l-11.636364 11.636364-37.236363 37.236363c-6.981818 6.981818-6.981818 11.636364 0 18.618182 0 6.981818 6.981818 6.981818 11.636363 6.981818h6.981819l51.2-18.618181s69.818182-32.581818 121.018181-32.581819h160.581819c18.618182 0 37.236364 6.981818 37.236363 11.636364v6.981818h-6.981818c-11.636364 6.981818-37.236364 6.981818-90.763636 6.981818-69.818182 0-139.636364 37.236364-139.636364 37.236364s-65.163636 44.218182-83.781818 58.181818c0 0-6.981818 0-6.981818 6.981818-37.236364 20.945455-55.854545 32.581818-88.436364 32.581819-18.618182 0-37.236364-6.981818-58.181818-11.636364-37.236364-11.636364-102.4-44.218182-139.636364-65.163636l83.781818-186.181819 32.581819 18.618182c18.618182 11.636364 37.236364 18.618182 58.181818 18.618182 18.618182 0 32.581818-6.981818 51.2-18.618182 6.981818-6.981818 25.6-11.636364 39.563636-18.618182 44.218182-25.6 121.018182-65.163636 139.636364-69.818181 25.6-11.636364 44.218182-18.618182 65.163636-18.618182 25.6 0 44.218182 11.636364 65.163636 25.6 6.981818 6.981818 13.963636 6.981818 18.618182 11.636363 37.236364 18.618182 293.236364 190.836364 318.836364 211.781819 32.581818 18.618182 32.581818 32.581818 32.581818 37.236363 0 0 0 6.981818-6.981818 6.981818-6.981818 6.981818-11.636364 11.636364-25.6 11.636364s-32.581818-6.981818-58.181818-18.618182l-25.6-11.636363h-16.290909c-6.981818 0-6.981818 6.981818-6.981819 11.636363l6.981819 25.6v6.981818s-6.981818 6.981818-11.636364 6.981819c-18.618182 0-37.236364-6.981818-51.2-18.618182l-11.636364-11.636364s-6.981818-6.981818-11.636363-6.981818c-6.981818 0-6.981818 0-6.981818 6.981818l-6.981819 11.636364c-11.636364 13.963636-18.618182 18.618182-25.6 18.618182-11.636364 0-32.581818-6.981818-65.163636-25.6-11.636364-4.654545-32.581818-18.618182-32.581818-18.618182h-6.981818l-51.2 6.981818c-6.981818 0-11.636364 6.981818-11.636364 11.636364s0 0 6.981818 6.981818c0 0 51.2 37.236364 76.8 51.2 32.581818 18.618182 58.181818 18.618182 83.781818 18.618182h6.981819c18.618182 0 32.581818-6.981818 51.2-18.618182 18.618182 11.636364 44.218182 18.618182 69.818181 18.618182s44.218182-6.981818 58.181819-25.6l6.981818-6.981819c18.618182 6.981818 37.236364 13.963636 51.2 13.963637 32.581818 0 51.2-18.618182 65.163636-32.581818s9.309091-30.254545 9.309091-44.218182c-6.981818-25.6-18.618182-44.218182-58.181818-69.818182-25.6-18.618182-281.6-190.836364-321.163637-211.781818-6.981818 0-11.636364-6.981818-11.636363-6.981818-44.218182-18.618182-76.8-37.236364-114.036364-37.236364z m-39.563636 563.2v69.818182h-90.763637v39.563636h95.418182v11.636364l-13.963636 18.618182h-83.781818v37.236363h58.181818l-51.2 76.8c-6.981818 13.963636-18.618182 25.6-25.6 32.581818h65.163636c9.309091-11.636364 9.309091-18.618182 20.945455-37.236363l51.2-88.436364 58.181818 95.418182c13.963636 18.618182 13.963636 25.6 18.618182 37.236364h65.163636c-6.981818-6.981818-18.618182-25.6-25.6-37.236364l-58.181818-83.781818h58.181818V570.181818h-83.781818l-11.636364-18.618182v-11.636363h90.763637V500.363636h-90.763637v-69.818181c0-2.327273-46.545455 4.654545-46.545454 4.654545z"  horiz-adv-x="1024" />

    
    <glyph glyph-name="shangpu" unicode="&#58887;" d="M394.7 229.7c13.6 13.1 13.7 34.4 0.3 47.6-13.5 13.2-35.4 13.4-49 0.3l-83.5-80.2c-13.6-13.1-13.7-34.4-0.3-47.6 6.8-6.6 15.7-10 24.6-10 8.8 0 17.6 3.2 24.4 9.7l83.5 80.2zM439.7 249.1L304.2 118.8c-13.6-13.1-13.7-34.4-0.3-47.6 6.8-6.6 15.7-10 24.6-10 8.8 0 17.6 3.2 24.4 9.7l135.5 130.3c13.6 13.1 13.7 34.4 0.3 47.6-13.5 13.2-35.4 13.4-49 0.3zM924.4 464.6l-73.8 309.6c-3.8 15.1-17.7 25.8-33.7 25.8H207.1c-16 0-29.9-10.7-33.7-25.8L99.6 464.6c-9.2-37-0.6-75.5 23.8-105.5 10-12.4 22.1-22.6 35.6-30.4v-282c0-43.5 36.6-78.8 81.6-78.8h542.8c45 0 81.6 35.3 81.6 78.8v282c13.5 7.8 25.6 18 35.6 30.3 24.3 30.1 33 68.5 23.8 105.6zM789.6 732.7L857 448.8c4.2-16.9 0.2-34.5-10.9-48.1-11.4-14.1-28.6-22.1-47.2-22.1-30.2 0-55.7 21.6-59.2 50.3l-36.2 303.8h86.1zM668.2 442.3c2-16.2-3-31.8-14.3-44.2-11.3-12.4-27.7-19.5-45-19.5h-2.7c-32.9 0-59.7 25.6-59.7 57.1v297h86.9l20.2-169.1 14.6-121.3z m-190.9-6.6c0-31.5-26.7-57.1-59.7-57.1H415c-17.2 0-33.6 7.1-45 19.5-11.2 12.4-16.3 28-14.3 44.3l14.4 121.2 20.2 169.1h86.9v-297zM167 448.8l67.4 283.8h86.1l-36.2-303.8c-3.6-28.7-29-50.3-59.2-50.3-18.6 0-35.8 8.1-47.2 22.1-11.2 13.8-15.1 31.3-10.9 48.2z m618.4-413.5H238.6c-6.8 0-12.3 5.1-12.3 11.4V311.3c36.8 0.3 70.3 15.7 93.7 40.3 24.4-25.6 58.9-40.3 95-40.3h2.6c37.2 0 70.8 15.3 94.3 39.6 23.6-24.4 57.1-39.6 94.3-39.6h2.7c36.2 0 70.6 14.6 95 40.2 23.4-24.6 56.9-39.9 93.7-40.2v-264.5c0.1-6.3-5.4-11.5-12.2-11.5z"  horiz-adv-x="1024" />

    
    <glyph glyph-name="zixun" unicode="&#58947;" d="M959.9 705.6c-0.1 44.2-4.7 78.2-26.8 100.3-22 22.1-55.9 26.8-100 26.9-158.6 0.6-321.2 0.6-497.3 0-46.3-0.2-77.6-10.2-98.5-31.6-15.1-15.4-24-36.1-27.3-63.7h-0.1c-58.9 2.3-97 1.4-120.4-21.5-25.4-24.7-26-67.6-24.8-135.7 1.8-107.9 1.4-217.7 1.1-324-0.2-63.6-0.4-129.3-0.2-194 0.2-44.2 4.8-78.2 26.8-100.3 22.1-22.2 55.9-26.8 100-26.9 107-0.3 213.3-0.5 318.4-0.5 105.9 0 210.4 0.2 312.8 0.5 37.7 0.1 79.9 3.8 106.2 30.3 21 21 30 52.9 30.1 106.5 0.6 204.8 0.6 418 0 633.7zM916 72.2c-0.1-40.4-5.5-63.8-17.4-75.7-11.9-11.9-35.1-17.3-75.3-17.4-203.9-0.6-416.1-0.6-630.8 0-38.8 0.1-59.4 4.3-69.1 14-9.7 9.7-13.9 30.5-14 69.5-0.2 64.5 0 130.2 0.2 193.7 0.4 106.4 0.7 216.5-1.1 324.8-0.9 53.2-0.6 91.7 11.6 103.5 7.9 7.6 26.9 9.9 53.8 9.9 10.5 0 22.2-0.3 34.9-0.8l0.1-0.1c2.6-133.4 4.8-268.8 6.9-399.8l2.7-164.5c0.2-12 10-21.6 21.9-21.6h0.4c12.1 0.2 21.8 10.2 21.6 22.3-0.9 54.8-1.8 109.6-2.7 164.5-2.2 134.8-4.4 274.3-7.1 411.4-0.6 32.1 4.5 52.6 16.3 64.7 12 12.2 34 18.2 67.3 18.4 176 0.6 338.5 0.6 497 0 38.8-0.2 59.5-4.4 69.1-14 9.7-9.7 13.9-30.5 14-69.5 0.3-215.7 0.3-428.7-0.3-633.3zM803.7 391.5H364.5c-12.4 0-22.3-10.2-21.9-22.7 0.4-11.9 10.6-21.2 22.5-21.2h439.2c12.4 0 22.3 10.2 21.9 22.7-0.4 12-10.6 21.2-22.5 21.2zM803.7 276.4H364.5c-12.4 0-22.3-10.2-21.9-22.7 0.4-11.9 10.6-21.2 22.5-21.2h439.2c12.4 0 22.3 10.2 21.9 22.7-0.4 11.9-10.6 21.2-22.5 21.2zM803.7 161.2H364.5c-12.4 0-22.3-10.2-21.9-22.7 0.4-11.9 10.6-21.2 22.5-21.2h439.2c12.4 0 22.3 10.2 21.9 22.7-0.4 11.9-10.6 21.2-22.5 21.2zM803.7 698.6H670.5c-12.4 0-22.3-10.2-21.9-22.7 0.4-11.9 10.6-21.2 22.5-21.2h133.3c12.4 0 22.3 10.2 21.9 22.7-0.5 12-10.7 21.2-22.6 21.2zM803.7 602.7H670.5c-12.4 0-22.3-10.2-21.9-22.7 0.4-11.9 10.6-21.2 22.5-21.2h133.3c12.4 0 22.3 10.2 21.9 22.7-0.5 11.9-10.7 21.2-22.6 21.2zM803.7 506.7H670.5c-12.4 0-22.3-10.2-21.9-22.7 0.4-11.9 10.6-21.2 22.5-21.2h133.3c12.4 0 22.3 10.2 21.9 22.7-0.5 11.9-10.7 21.2-22.6 21.2zM549 458.4c26.1 0 47.3 21.2 47.3 47.3V664c0 26.1-21.2 47.3-47.3 47.3H355.6c-26.1 0-47.3-21.2-47.3-47.3v-158.3c0-26.1 21.2-47.3 47.3-47.3H549z m-196.8 47.3V664c0 1.9 1.5 3.4 3.4 3.4H549c1.9 0 3.4-1.5 3.4-3.4v-158.3c0-1.9-1.5-3.4-3.4-3.4H355.6c-1.9 0-3.4 1.5-3.4 3.4z"  horiz-adv-x="1024" />

    
    <glyph glyph-name="jiantouxia" unicode="&#58925;" d="M517.688889 99.555556c-45.511111 0-85.333333 17.066667-119.466667 51.2L73.955556 514.844444c-22.755556 22.755556-17.066667 56.888889 5.688888 79.644445 22.755556 22.755556 56.888889 17.066667 79.644445-5.688889l329.955555-364.088889c5.688889-5.688889 17.066667-11.377778 28.444445-11.377778s22.755556 5.688889 34.133333 17.066667l312.888889 364.088889c22.755556 22.755556 56.888889 28.444444 79.644445 5.688889 22.755556-22.755556 28.444444-56.888889 5.688888-79.644445L637.155556 156.444444c-28.444444-39.822222-68.266667-56.888889-119.466667-56.888888 5.688889 0 0 0 0 0z"  horiz-adv-x="1024" />

    
    <glyph glyph-name="bianji" unicode="&#58882;" d="M358.166 341.375c-0.533-0.68-1.066-1.391-1.304-2.251l-41.104-150.7c-2.4-8.773 0.06-18.226 6.55-24.893 4.86-4.742 11.262-7.35 18.078-7.35 2.252 0 4.505 0.266 6.727 0.86l149.631 40.808c0.238 0 0.357-0.207 0.534-0.207 1.718 0 3.409 0.622 4.684 1.928l400.114 400.054c11.883 11.898 18.404 28.11 18.404 45.743 0 19.989-8.476 39.963-23.324 54.767l-37.787 37.845c-14.816 14.848-34.822 23.339-54.797 23.339-17.632 0-33.843-6.521-45.758-18.39l-400.056-400.16c-0.413-0.384-0.295-0.948-0.592-1.393m504.759 297.427l-39.742-39.713-64.429 65.451 39.18 39.18c6.194 6.222 18.195 5.318 25.31-1.823l37.812-37.846c3.944-3.941 6.195-9.186 6.195-14.372-0.027-4.254-1.54-8.107-4.326-10.877m-433.603-303.71l288.713 288.729 64.46-65.496-288.18-288.164-64.993 64.931zM376.718 218.03l20.864 76.58 55.656-55.658-76.52-20.922zM888.265 480.264c-15.145 0-27.563-12.313-27.62-27.665v-372.982c0-19.56-15.886-35.445-35.476-35.445H194.221c-19.56 0-35.505 15.884-35.505 35.445v608.78c0 19.577 15.945 35.476 35.505 35.476h406.367c15.232 0 27.593 12.372 27.593 27.606 0 15.203-12.361 27.59-27.593 27.59H190.013c-47.684 0-86.493-38.778-86.493-86.492v-617.17c0-47.713 38.81-86.477 86.493-86.477h639.334c47.716 0 86.51 38.764 86.51 86.478v377.37c-0.063 15.173-12.448 27.486-27.592 27.486"  horiz-adv-x="1024" />

    
    <glyph glyph-name="chakan1" unicode="&#58911;" d="M512 661.504c48.151273 0 96.349091-7.168 143.243636-21.294545a542.999273 542.999273 0 0 0 129.629091-58.926546 597.108364 597.108364 0 0 0 110.801455-88.971636 611.374545 611.374545 0 0 0 86.248727-110.731637 8.704 8.704 0 0 0 0-8.587636 611.141818 611.141818 0 0 0-86.225454-110.685091 596.642909 596.642909 0 0 0-110.801455-88.855273 543.232 543.232 0 0 0-129.652364-58.810181 497.338182 497.338182 0 0 0-143.266909-21.248c-48.174545 0-96.372364 7.144727-143.266909 21.248a543.069091 543.069091 0 0 0-129.629091 58.810181 597.410909 597.410909 0 0 0-110.801454 88.855273 609.070545 609.070545 0 0 0-86.225455 110.685091 8.704 8.704 0 0 0 0 8.587636 609.745455 609.745455 0 0 0 197.050182 199.703273 543.418182 543.418182 0 0 0 129.629091 58.926546A495.895273 495.895273 0 0 0 512 661.504m0 41.774545c-214.388364 0-401.826909-130.257455-504.738909-299.682909a51.246545 51.246545 0 0 1 0-52.596363C110.173091 181.573818 297.611636 51.642182 512 51.642182s401.826909 129.908364 504.738909 299.357091a51.246545 51.246545 0 0 1 0 52.596363C913.826909 573.021091 726.388364 703.278545 512 703.278545z m0-171.61309c40.401455 0 78.405818-16.058182 106.984727-45.21891a154.973091 154.973091 0 0 0 44.311273-109.172363 154.973091 154.973091 0 0 0-44.311273-109.172364A148.782545 148.782545 0 0 0 512 222.882909a148.712727 148.712727 0 0 0-106.961455 45.218909 154.973091 154.973091 0 0 0-44.311272 109.172364c0 41.239273 15.732364 80.011636 44.311272 109.172363A148.712727 148.712727 0 0 0 512 531.665455m0 41.774545c-106.146909 0-192.209455-87.808-192.209455-196.142545 0-108.334545 86.062545-196.142545 192.209455-196.142546 106.170182 0 192.209455 87.831273 192.209455 196.142546 0 108.334545-86.039273 196.142545-192.209455 196.142545z m0 0"  horiz-adv-x="1024" />

    
    <glyph glyph-name="ditie" unicode="&#58910;" d="M877.91-63.27H754.967l-25.734 58.134H288.927l-25.733-58.134H140.25l125.8 182.032c-24.78 6.99-45.11 20.968-60.992 41.936-15.886 20.966-23.829 45.11-23.829 72.43v417.44c0 16.515 4.29 32.244 12.867 47.174 8.579 14.929 19.063 28.593 31.451 40.979 12.392 12.39 25.1 23.031 38.12 31.93 13.027 8.894 24.303 15.565 33.838 20.015 9.53 4.444 20.014 9.209 31.449 14.294 11.438 5.084 25.096 9.529 40.979 13.343 15.886 3.813 34.313 6.986 55.28 9.53 20.964 2.541 45.428 3.813 73.383 3.813 31.767 0 59.723-1.432 83.866-4.29 24.147-2.857 45.272-6.671 63.38-11.436 18.108-4.763 33.993-10.165 47.651-16.2 13.663-6.035 26.21-12.232 37.647-18.587 11.435-6.353 23.507-13.658 36.213-21.921 12.713-8.257 24.15-17.628 34.313-28.113 10.165-10.484 18.583-22.397 25.255-35.739 6.672-13.344 10.009-28.277 10.009-44.792v-417.437c0-27.321-8.104-51.465-24.304-72.43-16.2-20.97-36.693-34.948-61.473-41.937L877.91-63.27zM419.494 769.694c-8.26 0-15.247-2.857-20.967-8.577-5.72-5.715-8.578-13.023-8.578-21.916 0-8.263 2.858-15.252 8.578-20.97 5.72-5.716 12.708-8.58 20.967-8.58h181.08c8.259 0 15.245 2.863 20.965 8.58 5.72 5.718 8.58 12.707 8.58 20.97 0 8.893-2.86 16.2-8.58 21.916-5.72 5.72-12.706 8.577-20.964 8.577H419.494zM240.32 471.39h536.568V650.567H240.321V471.39z m30.5-309.741c11.434 0 21.278 4.13 29.542 12.391 8.257 8.26 12.388 18.11 12.388 29.544 0 12.074-4.13 22.235-12.388 30.5-8.264 8.257-18.108 12.386-29.542 12.386-12.073 0-22.242-4.128-30.501-12.385-8.257-8.265-12.39-18.427-12.39-30.501 0-11.434 4.134-21.284 12.39-29.544 8.259-8.26 18.428-12.391 30.5-12.391z m430.776-107.69L674.912 114H343.25l-27.636-60.044h385.983z m2.857 149.625c0-11.434 4.129-21.284 12.392-29.544 8.257-8.26 18.423-12.391 30.5-12.391 12.07 0 22.235 4.13 30.493 12.391 8.263 8.26 12.391 18.11 12.391 29.544 0 12.074-4.128 22.235-12.39 30.5-8.258 8.257-18.423 12.386-30.494 12.386-12.077 0-22.242-4.128-30.5-12.385-8.263-8.265-12.392-18.427-12.392-30.501z m0 0"  horiz-adv-x="1024" />

    
    <glyph glyph-name="shuifeijisuanqi" unicode="&#58955;" d="M987.101215-16.830203l-84.873102 132.515033a234.321493 234.321493 0 0 1-19.567788 374.898519V810.841237a82.0641 82.0641 0 0 1-81.87366 81.98475l-659.099622 3.174013h-3.507284v-0.365011C68.161037 893.651231 31.358359 833.471948 31.358359 773.768768a26.249086 26.249086 0 0 1 26.249086-26.249085h141.59271l-0.142831-793.503193a82.07997 82.07997 0 0 1 81.96888-81.98475h519.633501a81.98475 81.98475 0 0 1 81.98475 81.98475v62.369351l45.451862-70.986796a35.025231 35.025231 0 0 1 48.387825-10.601202 35.025231 35.025231 0 0 1 10.617073 48.371954zM87.855787 800.017854c6.522596 21.456326 21.964168 43.372885 53.497985 43.452235h0.396752c31.502077-0.09522 46.959519-21.995908 53.466245-43.452235z m712.803918-875.519683H281.026204a29.518319 29.518319 0 0 0-29.470709 29.486579l0.142831 793.503192V773.768768a138.799578 138.799578 0 0 1-18.345794 69.225219l567.307173-2.697911a29.534189 29.534189 0 0 0 29.502448-29.486579V516.848305c-0.365011 0.126961-0.745893 0.190441-1.110904 0.333271-6.935218 2.38051-14.029136 4.427748-21.234146 6.189325-1.348955 0.333271-2.666171 0.777633-4.015126 1.079164-0.476102 0.11109-0.920464 0.285661-1.396565 0.380882a237.463765 237.463765 0 0 1-23.694006 3.935775c-1.015684 0.126961-2.047238 0.11109-3.078792 0.222181-7.34784 0.745893-14.679809 1.190255-21.995909 1.253735-2.237679 0-4.459488-0.142831-6.697166-0.20631-6.173455-0.126961-12.33104-0.428492-18.456885-1.031555-2.4916-0.253921-4.95146-0.618932-7.44306-0.952203q-8.792015-1.158515-17.45707-2.999442c-2.57095-0.539582-5.126031-1.142645-7.681111-1.761578q-8.506354-2.126589-16.822268-4.903849c-2.53921-0.825243-5.07842-1.587006-7.58589-2.555081-5.665613-2.094848-11.236005-4.491228-16.758787-7.030438-2.237679-1.031554-4.522968-1.936148-6.744778-3.031182a238.320749 238.320749 0 0 1-22.218089-12.537351q-9.82357-6.348026-19.044077-13.521294t-17.45707-15.140041a234.765855 234.765855 0 0 1-34.628479-295.357758c3.999256-6.252805 8.284173-12.188209 12.696051-17.933172 1.587006-1.999628 3.174013-3.840555 4.856239-5.776704 3.015312-3.618375 6.046494-7.220879 9.252248-10.632942 2.078978-2.221809 4.253177-4.300787 6.348025-6.348026 2.951832-2.904222 5.919534-5.776703 9.014196-8.506354q3.586634-3.174013 7.30023-6.157585 4.634059-3.777075 9.522038-7.300229c2.53921-1.856797 5.09429-3.697725 7.712851-5.459302 3.523154-2.38051 7.141529-4.586448 10.775774-6.744777 2.41225-1.428306 4.761019-2.920092 7.220879-4.253177 5.09429-2.793131 10.283801-5.332341 15.552662-7.712852 1.126775-0.507842 2.190069-1.110904 3.316844-1.587006 6.713037-2.920092 13.553035-5.491042 20.488252-7.760461 1.126775-0.365011 2.285289-0.650673 3.412064-0.999814q8.696795-2.729651 17.5999-4.761019c0.730023-0.174571 1.428306-0.428492 2.174199-0.587193 1.158515-0.253921 2.348769-0.349141 3.523154-0.571322q8.569834-1.745707 17.23489-2.824871c2.53921-0.317401 5.07842-0.666543 7.61763-0.904594 5.221251-0.476102 10.458372-0.714153 15.711364-0.856983 2.205939 0 4.396008-0.349141 6.601946-0.349142 1.174385 0 2.332899 0.222181 3.491414 0.253921 7.744591 0.142831 15.473312 0.745893 23.202034 1.587007 3.554894 0.412622 7.093919 0.809373 10.617072 1.380695a234.511934 234.511934 0 0 1 22.948113 4.99907c4.078606 1.110904 8.093733 2.41225 12.124728 3.729465 1.713967 0.571322 3.427934 0.983944 5.126031 1.587007v-120.691836a29.518319 29.518319 0 0 0-29.423098-29.534189z m50.323972 218.340339l-7.728721-4.475358a182.093113 182.093113 0 0 0-82.746513-24.424029h-2.332899q-6.951088-0.238051-13.854566 0c-1.856797 0.07935-3.729465 0.253921-5.586263 0.396752-3.570764 0.253921-7.141529 0.571322-10.680552 1.047424-3.078792 0.428492-6.157585 0.983944-9.236378 1.587007-2.45986 0.444362-4.93559 0.872854-7.379579 1.428305-3.697725 0.841113-7.300229 1.904408-10.918604 2.951832-1.999628 0.587192-4.015126 1.095034-5.983014 1.745707-3.523154 1.158515-6.935218 2.55508-10.347282 3.919906-2.031368 0.825243-4.110347 1.587006-6.125845 2.42812-3.015312 1.333085-5.903664 2.888352-8.823755 4.380137-2.301159 1.174385-4.649929 2.237679-6.887608 3.507285s-4.618189 2.888352-6.919348 4.332527c-2.634431 1.587006-5.332341 3.174013-7.935032 5.01494-1.587006 1.158515-3.174013 2.4916-4.761019 3.713595-3.031182 2.285289-6.094105 4.522968-8.998326 7.014568-0.793503 0.666543-1.491786 1.444176-2.253549 2.142459a182.045502 182.045502 0 0 0-32.597111 38.088153q-4.9832 7.792201-9.172897 16.060505c-0.333271 0.666543-0.571322 1.348955-0.904594 2.015498a182.394644 182.394644 0 0 0 35.628294 209.786374c0.269791 0.269791 0.507842 0.555452 0.761763 0.825243 3.554894 3.459674 7.37958 6.713037 11.251875 9.90292 0.872854 0.714153 1.587006 1.587006 2.53921 2.221809q7.220879 5.729093 14.997211 10.712293a185.425826 185.425826 0 0 0 22.45614 12.235819c4.284917 1.967888 8.744405 3.364454 13.140413 4.9832 3.459674 1.269605 6.855868 2.809001 10.379022 3.872296 4.761019 1.428306 9.648999 2.301159 14.505238 3.332713 3.332713 0.714153 6.601947 1.587006 9.95053 2.158329 4.570578 0.714153 9.188767 0.888724 13.791085 1.237865 3.777075 0.285661 7.53828 0.761763 11.331226 0.809373a182.156593 182.156593 0 0 0 22.821152-1.047424l1.015684-0.1587a181.934412 181.934412 0 0 0 21.980038-4.046867c1.206125-0.285661 2.38051-0.650673 3.570765-0.952204a182.077243 182.077243 0 0 0 21.027834-6.919347l0.793503-0.301532a185.409956 185.409956 0 0 0 22.535491-11.029694l2.618561-1.587006a181.140909 181.140909 0 0 0 59.592089-57.878123 181.982022 181.982022 0 0 0-54.513669-251.06441zM296.578867 737.331102h487.21096v-52.482302h-487.21096zM296.578867 606.133284h243.60548v-52.482301h-243.60548zM296.578867 474.935466h155.526625v-52.482301h-155.526625zM296.578867 343.753518h155.526625v-52.482301h-155.526625zM296.578867 26.352241h52.482301v-52.482301h-52.482301zM405.257064 26.352241h52.482301v-52.482301H405.257064zM513.935261 26.352241h52.482301v-52.482301h-52.482301zM622.613458 26.352241h52.482301v-52.482301h-52.482301zM731.307526 26.352241h52.482301v-52.482301h-52.482301z"  horiz-adv-x="1024" />

    
    <glyph glyph-name="user" unicode="&#58885;" d="M507.7504 892.5184c18.44736-0.00512 36.82304-2.2272 54.74304-6.6048a269.79328 269.79328 0 0 0 51.22048-17.75104 231.84384 231.84384 0 0 0 42.61888-25.37472 154.0096 154.0096 0 0 0 28.93824-28.42624 223.90784 223.90784 0 0 0 36.36224-71.51616 523.5712 523.5712 0 0 0 16.03584-74.56768 635.32544 635.32544 0 0 0 5.07904-82.11456 38.7072 38.7072 0 0 0 10.56256-13.17376 77.66016 77.66016 0 0 0 5.8624-18.26304c1.68448-9.03168 1.95072-18.26304 0.78336-27.37664a111.90272 111.90272 0 0 0-8.21248-33.97632 70.68672 70.68672 0 0 0-14.07488-19.7888 46.03392 46.03392 0 0 0-17.98656-11.14624 1026.44736 1026.44736 0 0 0-9.37984-32.45568c-3.52256-8.79616-7.04512-17.39776-10.95168-25.8816a70.4256 70.4256 0 0 0-14.08-19.7888 970.0352 970.0352 0 0 1-29.71136-25.88672 63.01696 63.01696 0 0 1-15.25248-36.01408 136.06912 136.06912 0 0 1-1.95584-30.9248c0.91136-10.8288 3.6864-21.40672 8.21248-31.2832a98.24768 98.24768 0 0 1 21.89824-29.91104 138.00448 138.00448 0 0 1 41.84064-25.37984 437.12512 437.12512 0 0 1 52.00384-18.26304 564.13696 564.13696 0 0 0 54.74304-18.76992 194.80064 194.80064 0 0 0 47.31392-26.3936 85.5552 85.5552 0 0 0 29.32736-43.01312 227.2768 227.2768 0 0 0 7.04-40.07936 492.9024 492.9024 0 0 0 2.34496-48.20992 280.6784 280.6784 0 0 0-3.51744-45.6704 90.63424 90.63424 0 0 0-9.77408-32.45568 56.07936 56.07936 0 0 0-27.37664-14.19776 529.83808 529.83808 0 0 0-55.13216-13.68576c-22.28736-4.38272-46.53056-8.28928-73.90208-11.72992a2105.78944 2105.78944 0 0 0-81.3312-8.64256 2471.8848 2471.8848 0 0 0-78.98624-5.59616c-25.02656-1.36704-46.91968-2.03264-65.30048-2.03264s-39.8848 0.6656-64.51712 2.03264c-24.63744 1.37216-49.664 3.21024-75.85792 5.59616a2881.6896 2881.6896 0 0 0-77.81376 8.13568c-25.80992 3.05152-49.26976 6.25664-70.37952 9.61536-21.11488 3.36384-38.71232 6.76352-53.57056 10.1632A70.56384 70.56384 0 0 0 138.24-78.12095999999997a89.30304 89.30304 0 0 0-14.85824 49.69984 402.64704 402.64704 0 0 0 4.3008 107.5712 85.4784 85.4784 0 0 0 28.15488 57.32352 183.36256 183.36256 0 0 0 54.35392 31.27808 706.6624 706.6624 0 0 0 64.51712 20.80256 199.86432 199.86432 0 0 1 59.04384 26.3936 139.49952 139.49952 0 0 1 30.49984 25.37984 83.16416 83.16416 0 0 1 15.24736 24.36096 62.94016 62.94016 0 0 1 5.08416 25.37984c0 8.78592-0.39424 18.60096-1.1776 29.44512a56.86272 56.86272 0 0 1-15.25248 37.03296 526.3616 526.3616 0 0 1-29.71136 27.91936 62.54592 62.54592 0 0 0-13.29664 19.7888 1870.37184 1870.37184 0 0 0-10.55744 25.8816 999.89504 999.89504 0 0 0-9.37984 32.45568 42.4704 42.4704 0 0 0-13.29152 7.1168 79.34464 79.34464 0 0 0-12.51328 14.19264 84.8896 84.8896 0 0 0-11.3408 26.3936 71.15776 71.15776 0 0 0-4.3008 31.27808c0.66048 8.30464 2.37056 16.49152 5.08416 24.36608a67.41504 67.41504 0 0 0 12.51328 21.30944 509.34784 509.34784 0 0 0 3.90656 77.1072 474.47552 474.47552 0 0 0 13.69088 69.99552 218.40896 218.40896 0 0 0 30.1056 66.97984 187.74016 187.74016 0 0 0 40.66816 46.1824 202.9568 202.9568 0 0 0 45.7472 27.91936 190.01856 190.01856 0 0 0 46.91968 13.68576 301.07136 301.07136 0 0 0 45.3632 3.5584V892.5184z m0 0"  horiz-adv-x="1024" />

    
    <glyph glyph-name="jisuanqi" unicode="&#59218;" d="M836.5 798h-608c-30.5 0-55.3-24.8-55.3-55.3v-718.6c0-30.5 24.7-55.3 55.3-55.3h608.1c30.5 0 55.3 24.7 55.3 55.3V742.7c-0.1 30.5-24.8 55.3-55.4 55.3z m0-773.9h-608V742.7h608.1v-718.6zM283.7 521.6h497.5c15.3 0 27.6 12.4 27.6 27.6V687.4c0 15.3-12.4 27.6-27.6 27.6H283.7c-15.3 0-27.6-12.4-27.6-27.6v-138.2c0-15.2 12.4-27.6 27.6-27.6z m0 165.8h497.5v-138.2H283.7V687.4zM726 466.3h-55.3c-15.3 0-27.6-12.4-27.6-27.6 0-15.3 12.4-27.6 27.6-27.6H726c15.3 0 27.6 12.4 27.6 27.6 0 15.3-12.4 27.6-27.6 27.6zM394.3 355.8H339c-15.3 0-27.6-12.4-27.6-27.6 0-15.3 12.4-27.6 27.6-27.6h55.3c15.3 0 27.6 12.4 27.6 27.6 0 15.2-12.3 27.6-27.6 27.6z m165.8 0h-55.3c-15.3 0-27.6-12.4-27.6-27.6 0-15.3 12.4-27.6 27.6-27.6h55.3c15.3 0 27.6 12.4 27.6 27.6 0.1 15.2-12.3 27.6-27.6 27.6z m165.9 0h-55.3c-15.3 0-27.6-12.4-27.6-27.6 0-15.3 12.4-27.6 27.6-27.6H726c15.3 0 27.6 12.4 27.6 27.6 0 15.2-12.4 27.6-27.6 27.6zM394.3 245.2H339c-15.3 0-27.6-12.4-27.6-27.6 0-15.3 12.4-27.6 27.6-27.6h55.3c15.3 0 27.6 12.4 27.6 27.6 0 15.2-12.3 27.6-27.6 27.6z m165.8 0h-55.3c-15.3 0-27.6-12.4-27.6-27.6 0-15.3 12.4-27.6 27.6-27.6h55.3c15.3 0 27.6 12.4 27.6 27.6 0.1 15.2-12.3 27.6-27.6 27.6z m165.9 0h-55.3c-15.3 0-27.6-12.4-27.6-27.6 0-15.3 12.4-27.6 27.6-27.6H726c15.3 0 27.6 12.4 27.6 27.6 0 15.2-12.4 27.6-27.6 27.6zM394.3 134.7H339c-15.3 0-27.6-12.4-27.6-27.6 0-15.3 12.4-27.6 27.6-27.6h55.3c15.3 0 27.6 12.4 27.6 27.6 0 15.2-12.3 27.6-27.6 27.6z m165.8 0h-55.3c-15.3 0-27.6-12.4-27.6-27.6 0-15.3 12.4-27.6 27.6-27.6h55.3c15.3 0 27.6 12.4 27.6 27.6 0.1 15.2-12.3 27.6-27.6 27.6z m165.9 0h-55.3c-15.3 0-27.6-12.4-27.6-27.6 0-15.3 12.4-27.6 27.6-27.6H726c15.3 0 27.6 12.4 27.6 27.6 0 15.2-12.4 27.6-27.6 27.6z m0 0"  horiz-adv-x="1024" />

    
    <glyph glyph-name="quyu" unicode="&#58889;" d="M516.096 875.52C241.664 875.52 18.432 652.288 18.432 377.856s223.232-497.664 497.664-497.664C790.528-120.832 1013.76 102.4 1013.76 377.856S790.528 875.52 516.096 875.52z m0-929.792c-70.656 0-137.216 17.408-195.584 47.104 0 0-1.024 1.024-4.096 3.072-38.912 18.432-82.944 78.848-84.992 97.28-2.048 18.432-2.048 50.176 12.288 62.464 14.336 12.288 36.864 44.032 66.56 93.184 28.672 50.176-48.128 60.416-68.608 68.608-20.48 8.192-54.272 56.32-93.184 59.392-38.912 4.096-24.576-28.672-36.864-38.912-11.264-9.216-16.384-8.192-24.576 3.072-1.024 12.288-2.048 23.552-2.048 35.84 0 71.68 17.408 140.288 49.152 199.68 11.264 7.168 21.504 16.384 21.504 16.384h16.384c2.048 0 12.288-12.288 0-22.528-12.288-10.24-22.528-46.08 6.144-44.032 29.696 2.048 67.584 7.168 71.68 36.864 4.096 29.696-2.048 35.84 13.312 41.984 14.336 6.144 26.624-2.048 22.528-20.48-4.096-18.432 0-44.032 18.432-48.128 18.432-4.096 12.288-24.576 30.72-18.432 18.432 6.144 8.192 38.912 22.528 56.32 14.336 16.384 20.48 24.576 20.48 46.08 0 20.48 11.264 40.96 33.792 51.2 22.528 10.24 65.536 3.072 75.776-22.528 10.24-24.576 37.888-46.08 27.648-54.272-10.24-8.192-33.792-18.432-39.936-26.624-6.144-8.192-16.384-14.336-34.816-30.72-18.432-16.384-38.912-48.128-10.24-70.656s46.08-34.816 76.8-34.816 58.368-24.576 76.8-36.864c18.432-12.288 24.576-22.528 30.72-32.768 6.144-10.24 2.048-36.864 12.288-56.32 10.24-18.432 10.24-58.368 10.24-78.848s8.192-50.176 12.288-68.608c4.096-18.432-8.192-60.416 14.336-62.464 22.528-2.048 32.768 13.312 55.296 56.32s32.768 40.96 48.128 60.416c14.336 18.432 18.432 34.816 20.48 54.272 2.048 18.432 24.576 20.48 24.576 56.32 0 34.816 0 36.864-8.192 55.296-8.192 19.456-20.48 21.504-16.384 39.936 4.096 18.432-4.096 18.432 24.576 32.768 28.672 14.336 50.176 16.384 58.368 36.864 8.192 20.48 6.144 48.128 10.24 60.416 4.096 12.288 4.096 18.432 23.552 12.288 25.6-55.296 40.96-117.76 40.96-182.272 2.048-239.616-191.488-433.152-429.056-433.152z m0 0"  horiz-adv-x="1024" />

    
    <glyph glyph-name="shangyejianzhu" unicode="&#59047;" d="M926.5-30.5h-829v41.4h69.1V620.8l1.1-1.7 3.5 2.1-1.1 1.9 262.2 152 0.1-0.1 24.3 14.3v-778.2h41.5V632.7H664V798.5h41.5v-165.8h165.8V11h55.3v-41.5zM415.3 717.2L208 597.1V11h207.2V717.2z m414.5-125.9H539.6v-414.5h69.1V508.3h41.4v-331.6h69.1V508.3h41.4v-331.6h69.1V591.3z m0-456H539.6V11h290.1V135.3z m-456 165.8H249.5v41.4h124.4v-41.4z m0-96.7H249.5v41.4h124.3v-41.4zM249.5 439.3h124.3v-41.4H249.5v41.4z"  horiz-adv-x="1024" />

    
    <glyph glyph-name="jiantou2" unicode="&#59857;" d="M318.1-64c-11.9 0-23.8 4.7-33 13.9-18.1 18.5-18.1 48.3 0 66.8l360 364.7-365.2 369.8c-18.1 18.4-18.1 48.3 0 66.9 18.3 18.5 47.8 18.5 65.9 0L744 414.7c18.3-18.5 18.3-48.3 0-66.8l-392.8-398c-9.1-9.2-21.2-13.9-33.1-13.9z"  horiz-adv-x="1024" />

    
    <glyph glyph-name="zuojiantou" unicode="&#58922;" d="M257.51420263 382.48039922L697.22584385 822.01222324c16.03365117 16.03365117 41.95721778 15.91377364 57.87099052-0.2697249a41.50767568 41.50767568 0 0 0-0.23975507-58.35050157l-380.88162774-380.70181142L754.7671707 4.625685060000023A41.47770674 41.47770674 0 0 0 755.18674297-53.72481650999998 40.69850098 40.69850098 0 0 0 697.31575156-54.17435859l-439.80154893 436.65475781z"  horiz-adv-x="1024" />

    
    <glyph glyph-name="tuijian" unicode="&#58902;" d="M773.632 563.2l-76.8-76.8s0 307.2-256 409.6c0 0-25.6-281.6-153.6-384s-384-409.6 128-640c0 0-256 281.6 76.8 486.4 0 0-25.6-102.4 102.4-204.8s0-281.6 0-281.6 614.4 153.6 179.2 691.2z"  horiz-adv-x="1037" />

    
    <glyph glyph-name="yonghu" unicode="&#59565;" d="M820.224 105.472c-60.416 29.696-38.912 6.144-116.736 38.912-80.896 32.768-100.352 44.032-100.352 44.032l-1.024 75.776s30.72 22.528 39.936 94.208c19.456-5.12 25.6 21.504 26.624 38.912 1.024 16.384 11.264 69.632-12.288 64.512 5.12 34.816 9.216 67.584 6.144 83.968-5.12 59.392-47.104 120.832-150.528 125.952-88.064-5.12-145.408-66.56-151.552-125.952-2.048-16.384 2.048-49.152 6.144-83.968-23.552 5.12-12.288-48.128-12.288-64.512 1.024-17.408 7.168-45.056 26.624-38.912 9.216-71.68 38.912-95.232 38.912-95.232l-1.024-76.8s-19.456-11.264-100.352-45.056c-78.848-32.768-56.32-8.192-116.736-37.888C137.216 178.176 96.256 276.48 96.256 384c0 229.376 186.368 415.744 415.744 415.744s415.744-186.368 415.744-415.744c0-107.52-40.96-204.8-107.52-278.528zM512 896C229.376 896 0 666.624 0 384s229.376-512 512-512 512 229.376 512 512C1024 667.648 795.648 896 512 896z"  horiz-adv-x="1024" />

    
    <glyph glyph-name="shouye" unicode="&#59262;" d="M908.5 369.8l-30.8-36.7c-2.6-3-6.2-4.8-10.4-5.4h-1.5c-4.3 0-7.8 1.1-10.4 3.4L512 617.5 168.6 331.1c-4-2.6-7.9-3.8-11.9-3.4-4.3 0.6-7.8 2.5-10.4 5.4l-30.8 36.7c-2.6 3.3-3.8 7.2-3.4 11.7 0.3 4.5 2.2 8 5.4 10.6l356.8 297.2c10.5 8.7 23.1 12.9 37.7 12.9 14.5 0 27.1-4.3 37.7-12.9l121.1-101.2v96.8c0 4.6 1.5 8.5 4.5 11.4 3 3 6.8 4.5 11.4 4.5H782c4.6 0 8.5-1.5 11.4-4.5 3-3 4.5-6.8 4.5-11.4v-202.5l108.8-90.3c3.3-2.6 5.1-6.2 5.4-10.6 0.2-4.5-1-8.4-3.6-11.7z m-110.6-34.2v-238.2c0-8.6-3.1-16.1-9.4-22.3s-13.8-9.4-22.3-9.4H575.6V256.1H448.4v-190.5H258c-8.6 0-16.1 3.1-22.3 9.4-6.3 6.3-9.4 13.7-9.4 22.3V335.6c0 0.3 0.1 0.8 0.2 1.5 0.2 0.6 0.2 1.1 0.2 1.5L512 573.7l285.4-235.3c0.3-0.5 0.5-1.5 0.5-2.8z"  horiz-adv-x="1024" />

    
    <glyph glyph-name="huifu-copy-copy-copy" unicode="&#58881;" d="M511.45926666 64.34934996000004L432.28045655 193.43012237000005H264.96211241c-49.82471465 0-90.37971497 40.55500031-90.37971495 90.37971498V613.2709350499999c0 49.82471465 40.55500031 90.37971497 90.37971495 90.37971496h494.15302278c49.82471465 0 90.37971497-40.55500031 90.37971496-90.37971496v-329.38385009c0-49.82471465-40.55500031-90.37971497-90.37971496-90.37971497H596.50889589L511.45926666 64.34934996000004zM264.96211241 666.9580307c-29.58583833 0-53.68709568-24.10125733-53.68709564-53.68709563v-329.38385011c0-29.66308594 24.10125733-53.76434329 53.68709564-53.76434325h187.78896336l59.78965756-97.40924836 64.19277192 97.40924836h182.3043823c29.58583833 0 53.68709568 24.10125733 53.68709568 53.76434325V613.2709350499999c0 29.58583833-24.10125733 53.68709568-53.68709568 53.68709568H264.96211241zM342.13248443 443.4034195m-46.3485718-3e-8a46.34857177 46.34857177 0 1 1 92.69714358 0 46.34857177 46.34857177 0 1 1-92.69714358 0ZM512 443.4034195m-46.34857177-3e-8a46.34857177 46.34857177 0 1 1 92.69714354 0 46.34857177 46.34857177 0 1 1-92.69714354 0ZM681.86751557 443.4034195m-46.34857179-3e-8a46.34857177 46.34857177 0 1 1 92.69714359 0 46.34857177 46.34857177 0 1 1-92.69714358 0Z"  horiz-adv-x="1024" />

    
    <glyph glyph-name="yuyue1" unicode="&#58993;" d="M320.8192 858.3168v-243.85536h-52.0192V858.3168h52.0192zM70.0416 747.99104h107.8272v-52.0192H96.0512v-734.26944h831.91808V695.97184h-81.79712V747.99104h133.81632v-838.30784H44.032V747.99104h26.0096z m342.65088 0h198.656v-52.0192h-198.656V747.99104z m-152.43264-329.35936h500.1216v-52.0192H260.25984v52.0192z m0-188.5184h500.1216v-52.0192H260.25984v52.0192zM758.86592 858.3168v-243.85536h-52.0192V858.3168h52.0192z"  horiz-adv-x="1024" />

    
    <glyph glyph-name="zoushi-xia" unicode="&#58880;" d="M1071.996781-128H0V896h40.992959v-985.478978h1031.003822v-38.521022zM207.642728 637.888554v-590.175015H169.945685V637.888554h37.697043m20.599477 47.790786H148.522229a22.865419 22.865419 0 0 1-20.599477-23.895393v-638.583786a22.865419 22.865419 0 0 1 20.599477-23.895393h80.543955a22.865419 22.865419 0 0 1 20.599477 23.895393v638.583786a22.865419 22.865419 0 0 1-20.599477 23.895393zM669.483001 337.13619V41.121706h-37.697042V337.13619h37.697042m20.599477 41.198954h-79.719975a20.599477 20.599477 0 0 1-20.599477-20.599477V20.522229a20.599477 20.599477 0 0 1 20.599477-20.599477h80.543954a20.599477 20.599477 0 0 1 20.599477 20.599477V357.735667a20.599477 20.599477 0 0 1-20.599477 20.599477zM438.562865 472.268759V51.421444h-37.697043V472.268759h37.697043m20.599477 52.116677h-79.719976a24.101388 24.101388 0 0 1-20.599477-26.161336v-472.140012a24.101388 24.101388 0 0 1 20.599477-26.161336h80.543955a24.101388 24.101388 0 0 1 20.599477 26.161336V498.2241a24.101388 24.101388 0 0 1-20.599477 26.161336zM900.197143 141.441159v-87.341783h-37.491048v87.341783h37.491048m20.599477 54.176624h-79.719975a24.719372 24.719372 0 0 1-20.599477-27.191309v-141.518407a24.719372 24.719372 0 0 1 20.599477-27.19131h80.543954a24.719372 24.719372 0 0 1 20.599477 27.19131v141.518407a24.719372 24.719372 0 0 1-20.599477 27.191309zM929.448401 391.724804C646.823577 452.081271 369.554617 636.240595 247.193724 843.883323a20.599477 20.599477 0 0 0 8.033796 28.427278 20.599477 20.599477 0 0 0 27.603299-7.827801c117.623013-198.166968 383.974251-374.292496 656.093341-432.589016zM941.190103 392.548783l-61.798431 114.121102a20.599477 20.599477 0 0 0 8.23979 28.015289 20.599477 20.599477 0 0 0 28.015289-8.239791l68.390264-125.656809a7.415812 7.415812 0 0 0-2.883927-10.093744l-11.535707-6.385838a20.599477 20.599477 0 0 0-28.427278 8.239791zM833.866828 333.222289a20.599477 20.599477 0 0 0 8.23979 27.19131l118.446993 65.300342a7.415812 7.415812 0 0 0 10.093744-2.883927l12.565681-23.071414a7.415812 7.415812 0 0 0-2.883927-10.093744l-118.446993-65.300342a20.599477 20.599477 0 0 0-28.015288 8.857775z"  horiz-adv-x="1071" />

    
    <glyph glyph-name="huankuan" unicode="&#58891;" d="M543.479259 894.041912c18.242185-1.438595 36.484371-2.777288 54.556721-5.824312 2.657405-0.449561 3.69639-0.789229 3.076996-3.876215-4.225873-21.199298-8.331863-42.428566-12.238049-63.687805-0.609405-3.306771-1.678361-3.816273-4.815298-3.29678-47.363746 7.852332-94.767454 7.622556-142.16117 0.219785C287.858888 793.490107 156.007649 687.203902 99.972371 539.118517c-15.345015-40.5504-24.765815-82.439493-27.213425-125.777171-5.404722-95.496741 16.064312-184.349971 67.424156-265.310907 47.263844-74.507239 111.471141-129.86318 192.002498-166.047844 68.503102-30.779941 140.48281-43.317698 215.089951-36.504351 128.63438 11.738537 233.442029 68.80281 312.994342 170.703297 48.103024 61.619824 76.58521 131.841249 87.025014 209.365542 5.184937 38.51239 4.90521 76.99481 0.149854 115.5072-0.099902 0.82919-0.039961 1.688351-0.259746 2.47758-1.23879 4.545561 0.539473 5.72441 5.115005 6.064078 20.739746 1.548488 41.459512 3.496585 62.169287 5.474654 3.496585 0.329678 5.464663 0.269737 5.694439-4.165932 0.42958-8.132059 1.568468-16.224156 2.44761-24.326243 0.099902-0.889132-0.159844-2.117932 1.388644-2.107942v-1.998049c-0.8192-2.327727-0.8192-4.665444 0-6.99317v-5.994147c-0.79922-1.328702-0.79922-2.667395 0-3.996097v-6.993171c-1.098927-2.287766-0.259746-4.715395-0.519493-7.063103 0.269737-2.637424-0.569444-5.33479 0.519493-7.922263v-0.999024c-1.088937-1.978068-0.249756-4.11598-0.519493-6.163981 0.289717-2.597463-0.609405-5.274849 0.519493-7.822361v-12.987317c-1.038985-2.207844-0.269737-4.555551-0.519493-6.833327-1.688351-41.519454-10.100137-81.770146-22.637892-121.27157-20.729756-65.276254-53.717541-123.739161-97.924371-175.898225-40.450498-47.723395-88.203863-86.735298-142.900449-116.985756-45.115941-24.955629-92.949229-42.908098-143.649717-53.058185-22.867668-4.585522-45.785288-8.321873-69.142478-8.971239-2.577483-0.289717-5.234888 0.609405-7.752429-0.519493h-7.992195c-1.688351 1.048976-3.556527 0.269737-5.31481 0.519493h-6.313834c-1.778263-0.239766-3.656429 0.539473-5.354771-0.519493h-3.996098c-1.948098 1.088937-4.066029 0.249756-6.084058 0.519493-2.297756-0.259746-4.675434 0.579434-6.903259-0.519493h-2.997073c-1.608429 1.048976-3.406673 0.279727-5.105014 0.519493-1.958088-0.259746-4.006088 0.569444-5.884254-0.519493h-0.999025c-1.908137 1.078946-3.986107 0.249756-5.964175 0.519493-26.723902 0.739278-52.888351 5.454673-78.912937 11.129131-30.680039 6.683473-60.291122 16.713678-89.053034 29.201483-44.22681 19.201249-84.927063 44.206829-122.160702 74.906849-12.857444 10.599649-25.245346 21.738771-36.953912 33.497288-21.608898 21.71879-41.309659 45.165893-58.742635 70.431219-29.321366 42.498498-51.899317 88.333737-67.434146 137.565659-9.380839 29.740956-15.814556 60.151259-19.780683 91.111024-1.168859 9.051161-0.689327 18.212215-2.527532 27.173464v7.992195c0.729288 0.669346 0.449561 1.548488 0.519493 2.357697-0.179824 1.20882 0.42958 2.537522-0.519493 3.636449v6.993171c1.088937 3.426654 0.239766 6.95321 0.519493 10.419824-0.299707 8.18201 0.619395 16.384-0.519493 24.54603v5.994146c0.619395 0.549463 0.489522 1.298732 0.519493 1.998049-0.01998 0.699317 0.099902 1.448585-0.519493 1.998049v3.996097c1.078946 1.908137 0.249756 3.986107 0.519493 5.964176 1.928117 40.180761 10.489756 79.06279 22.687844 117.255492 19.530927 61.140293 49.871298 116.426302 90.361756 166.137756 30.650068 37.633249 65.885659 70.371278 105.866615 97.994303 20.999493 14.505834 42.748254 27.682966 65.685853 38.862049 44.25678 21.588917 90.591532 36.893971 139.144117 45.215844 17.033366 2.917151 34.166634 5.384741 51.509698 5.584546 2.577483 0.289717 5.224898-0.609405 7.752429 0.519493h0.999025c1.918127-1.078946 3.996098-0.249756 5.984156-0.519493 1.988059 0.259746 4.07602-0.569444 6.004136 0.519493h1.998049c2.997073-0.79922 5.994146-0.79922 8.99122 0h11.988292c1.2288-0.979044 2.667395-0.319688 3.996098-0.519493 1.328702 0.199805 2.767298-0.469541 3.996097 0.519493h4.995122c3.226849-1.388644 6.753405 0.309698 10.000235-0.959064zM0.999024 403.480976c2.087961-3.716371 0.729288-7.742439 0.939083-11.608664 0.239766-4.455649 0.039961-8.941268 0.029971-13.406907-0.339668-0.4096-0.669346-0.4096-0.969054 0.039961v24.97561zM0.999024 378.505366c0.319688 0 0.649366-0.01998 0.969054-0.049951-0.469541-3.29678 1.148878-6.803356-0.969054-9.940293v9.990244zM543.479259 894.041912c-3.346732 0.189815-6.833327-1.048976-10.000235 0.959064h9.990244c0.00999-0.319688 0.00999-0.639376 0.009991-0.959064zM508.503415 895.000976c-2.997073-1.498537-5.994146-1.708332-8.99122 0h8.99122zM476.534634 894.011941V895.000976h7.992195c-2.4576-1.978068-5.30482-0.82919-7.992195-0.989035zM1024 383.500488c-1.958088 2.47758-0.619395 5.354771-0.949073 8.032156 0.329678 0.4096 0.649366 0.41959 0.949073-0.039961v-7.992195zM1024 368.515122c-2.087961 2.43762-0.499512 5.30482-0.939083 7.932254 0.279727 0.509502 0.599415 0.499512 0.939083 0.059941v-7.992195zM547.475356-127.030946c0-0.319688-0.00999-0.639376-0.00999-0.969054h-7.992195c2.46759 2.008039 5.31481 0.779239 8.002185 0.969054zM1024 348.534634h-0.999024c0.039961 2.377678-0.859161 4.875239 0.999024 6.993171v-6.993171zM1024 415.469268c-1.608429 2.327727-1.698341 4.665444 0 6.993171v-6.993171zM497.514146-128c2.077971 1.988059 4.625483 0.569444 6.923239 0.929093 0.369639-0.179824 0.499512-0.379629 0.39961-0.589425-0.109893-0.219785-0.209795-0.339668-0.329678-0.339668h-6.993171zM519.552624-127.070907l7.033132-0.089913c0.239766-0.219785 0.309698-0.41959 0.199805-0.589424-0.099902-0.159844-0.199805-0.249756-0.299707-0.249756h-6.993171c-0.339668 0.229776-0.439571 0.449561-0.309698 0.649366 0.129873 0.189815 0.249756 0.279727 0.369639 0.279727zM1024 391.492683c-0.319688 0-0.639376 0.01998-0.949073 0.039961 0.349659 2.317737-1.019005 4.865249 0.949073 6.95321v-6.993171zM491.460059 894.161795c-1.988059 0.229776-4.215883-1.24878-5.934205 0.839181h5.994146c0.339668-0.209795 0.439571-0.4096 0.309698-0.579435-0.119883-0.169834-0.239766-0.259746-0.369639-0.259746zM491.460059 894.161795c0.029971 0.279727 0.049951 0.559454 0.059941 0.839181h5.994146c-1.828215-1.678361-3.986107-0.889132-6.054087-0.839181zM0.999024 423.461463h0.989035c-0.119883-2.03801 0.999024-4.275824-0.989035-5.994146v5.994146zM1024 376.507317c-0.319688-0.00999-0.629385-0.01998-0.939083-0.059941 0.209795 2.03801-0.849171 4.265834 0.939083 6.054087v-5.994146zM476.534634-128v0.969054c2.03801-0.089912 4.265834 1.019005 5.994146-0.969054h-5.994146zM483.527805-128c1.708332 2.217834 3.966127 0.509502 5.934205 0.82919 0.359649-0.159844 0.489522-0.339668 0.389619-0.529483-0.109893-0.199805-0.219785-0.299707-0.329678-0.299707h-5.994146zM504.507317-128c-0.00999 0.309698-0.029971 0.619395-0.069932 0.929093 2.03801-0.179824 4.265834 0.859161 6.064078-0.929093h-5.994146zM489.521951-128c-0.00999 0.279727-0.029971 0.559454-0.059941 0.82919 1.738302 0.039961 3.606478 0.879141 5.055063-0.82919h-4.995122zM519.552624-127.070907c-0.039961-0.309698-0.059941-0.619395-0.059941-0.929093h-4.995122c1.438595 1.65838 3.336741 0.8192 5.055063 0.929093zM526.485854-128c0.01998 0.279727 0.049951 0.559454 0.109892 0.83918 1.6384-0.229776 3.546537 1.088937 4.88523-0.83918h-4.995122zM524.537756 894.151805c-1.418615-0.069932-2.957112-0.659356-4.046049 0.849171h3.996098c0.309698-0.169834 0.41959-0.349659 0.329678-0.549464-0.089912-0.199805-0.179824-0.299707-0.279727-0.299707zM524.537756 894.151805c-0.029971 0.279727-0.049951 0.569444-0.049951 0.849171h3.996097c-0.989034-1.788254-2.597463-0.729288-3.946146-0.849171zM1024 405.479024c-1.428605 1.328702-1.668371 2.667395 0 3.996098v-3.996098zM0.999024 361.521951c1.688351-1.048976 0.859161-2.627434 0.849171-4.026068-0.299707-0.42958-0.579434-0.38962-0.849171 0.029971v3.996097zM0.999024 357.525854l0.849171-0.029971c0.109893-0.82919 0.469541-1.758283-0.849171-1.968078v1.998049zM1.838205 411.523122c0.169834-0.869151 0.149854-1.65838-0.839181-2.048v1.998049c0.259746 0.42958 0.539473 0.439571 0.839181 0.049951zM1.838205 411.523122c-0.279727-0.01998-0.559454-0.029971-0.839181-0.049951v1.998049c1.2288-0.239766 0.969054-1.128898 0.839181-1.948098zM546.466341 422.89202c-31.679063-38.152741-65.635902-72.019668-105.127336-100.052293-11.249015-7.982205-22.867668-15.404956-34.895922-22.188332-5.264859-2.967102-9.8304-1.468566-14.765581 4.765346-4.215883 5.3248-4.255844 9.0112-0.109892 13.676644 42.918088 48.362771 82.119805 99.452878 114.618068 155.498147 20.000468 34.496312 37.853034 70.03161 52.538693 107.125385 0.649366 1.64839 1.808234 3.186888 1.418614 5.414712H427.352663c-9.191024 0-12.6976 3.486595-12.757541 12.597698-0.00999 2.327727-0.099902 4.665444 0.029971 6.993171 0.359649 6.203941 4.765346 10.389854 10.979278 10.539707 1.168859 0.029971 2.327727 0 3.496585 0h309.25799c-0.319688 2.107941-1.948098 2.87719-3.037034 3.966127-13.856468 13.9264-27.772878 27.792859-41.649327 41.699278-16.224156 16.274107-16.384 39.960976-0.209795 56.175141 37.033834 37.133737 74.15758 74.177561 111.231376 111.261347 2.607454 2.607454 5.414712 4.975141 8.791414 6.483668 6.713444 3.007063 12.218068 0.689327 14.805542-6.183961 1.668371-4.435668 1.858185-9.101112 1.858185-13.776546-0.00999-27.802849 0.089912-55.605698-0.099902-83.408547-0.029971-4.096 0.989034-5.214907 5.164956-5.204917 42.788215 0.169834 85.576429 0.179824 128.364644 0.069932 21.578927-0.059941 37.6832-16.054322 37.563317-36.923942-0.109893-19.550907-16.384-35.675161-36.194654-35.705131-42.788215-0.049951-85.576429-0.099902-128.364644 0.099902-4.945171 0.01998-6.653502-0.849171-6.593561-6.303844 0.319688-28.132527 0.139863-56.275044 0.159844-84.407571 0-4.51559-0.159844-9.0112-1.65838-13.316995-2.43762-7.003161-7.872312-9.380839-14.645698-6.363785-4.165932 1.848195-7.522654 4.845268-10.719531 8.042146-10.23001 10.25998-20.519961 20.450029-30.680039 30.769952-2.018029 2.048-4.056039 2.957112-6.983181 2.947121-38.292605-0.089912-76.58521-0.079922-114.877815-0.01998-2.657405 0-4.445659-0.299707-5.774361-3.216859-14.695649-32.188566-30.660059-63.707785-50.00117-93.40878-0.159844-0.239766-0.129873-0.609405-0.209795-1.019005 1.398634-1.198829 3.166907-0.759259 4.645463-0.559454 9.300917 1.288741 19.570888-9.620605 19.520937-19.580878-0.38962-78.083746-0.209795-156.167493-0.219786-234.251239 0-11.708566-7.922263-19.610849-19.700761-19.630829-10.65959-0.01998-21.359141 0.649366-31.9488-0.189815-10.579668-0.82919-20.709776 9.940293-20.629853 20.839649 0.39961 56.10521 0.189815 112.21042 0.189814 168.32562 0.00999 5.764371 0.00999 11.528741 0.00999 18.42201zM351.256976 207.911961c-17.532878-27.173463-35.894946-53.048195-57.32402-76.615181-2.347707-2.577483-4.705405-5.204917-7.402771-7.38279-8.531668-6.883278-18.631805-6.12402-24.835746 2.8672a268.109175 268.109175 0 0 0-25.525073 46.104976c-4.11598 9.550673-0.889132 16.174205 8.931278 21.169327 18.921522 9.620605 37.873015 19.191259 56.884449 28.642029 2.707356 1.338693 3.796293 2.817249 3.786302 5.984156-0.109893 62.2592-0.119883 124.5184 0.00999 186.78759 0.00999 3.626459-1.078946 4.295805-4.445658 4.245854-13.476839-0.199805-26.963668-0.099902-40.450498-0.079922-10.269971 0.01998-14.086244 3.886205-14.136195 14.206127-0.079922 16.963434 1.528507 18.591844 18.362068 18.591844 12.148137 0 24.306263 0.089912 36.4544-0.059942 3.027044-0.039961 4.245854 0.449561 4.225874 3.936156-0.079922 12.797502 6.903259 19.560898 19.750712 19.600859 10.819434 0.029971 21.638868 0.069932 32.458302-0.00999 12.377912-0.099902 19.770693-7.582595 19.780683-19.980488 0.01998-73.917815 0.049951-147.825639-0.099902-221.743454-0.00999-4.225873 1.488546-6.423727 4.765346-8.771434 18.771668-13.426888 40.280663-18.222205 62.64882-20.699785 50.870322-5.634498 101.940449-6.014127 153.020565-5.454673 50.710478 0.559454 101.390985 2.077971 152.061503 4.335765 10.799454 0.479532 21.588917 0.999024 32.398361 1.21881 8.052137 0.159844 10.459785-2.497561 8.6016-10.399844-2.667395-11.338927-7.7824-21.838673-12.587707-32.408351-0.479532-1.058966-1.078946-2.06798-1.448586-3.166907-5.984156-17.842576-19.411044-24.396176-37.143727-25.045542-26.584039-0.959063-53.148098-2.4576-79.762107-2.547512-28.791883-0.089912-57.593756-0.609405-86.375649-0.209795-28.911766 0.39961-57.893463-0.00999-86.715317 2.787278-24.216351 2.347707-47.993132 6.98318-70.651005 16.254127-26.254361 10.739512-46.574517 28.502166-61.749697 52.328897-1.058966 1.668371-2.117932 3.346732-3.486595 5.514615zM778.080156 355.188137c-1.858185-16.084293-6.893268-33.657132-18.711727-48.602537-11.85842-14.985366-30.000702-13.786537-39.821112 3.067005-7.342829 12.587707-13.5168 25.864741-20.200273 38.842068-16.553834 32.128624-35.275551 62.858615-58.15321 90.94119-3.916176 4.815298-3.736351 8.671532 0.279727 13.90642 4.265834 5.564566 10.020215 7.432741 15.674693 4.93518 24.9856-11.009249 48.76238-24.1664 70.980683-40.080858 12.178107-8.721483 24.116449-17.732683 35.045775-28.012644 9.350868-8.821385 15.295063-19.181268 14.905444-34.995824zM294.202693 647.262907c6.673483 0.229776 11.808468-2.727337 17.133268-4.905209 25.195395-10.339902 48.692449-23.487063 68.742868-42.198791 6.403746-5.974166 11.588683-12.767532 13.606712-21.548956 2.217834-9.680546-0.879141-18.461971-4.985131-26.863766-5.194927-10.599649-11.498771-20.529951-19.64082-29.231453-11.8784-12.67762-29.960741-10.589659-37.413463 5.095024-5.954185 12.537756-10.439805 25.774829-16.064312 38.49241-9.260956 20.949541-19.950517 41.179785-32.438322 60.401014-2.967102 4.565541-3.466615 8.871337-0.739278 13.466849 2.757307 4.665444 6.313834 8.192 11.798478 7.292878z"  horiz-adv-x="1025" />

    
    <glyph glyph-name="dianhua" unicode="&#58957;" d="M682.25 430.738c0-16.695 11.115-27.811 27.81-27.811s27.812 11.116 27.812 27.811A167.395 167.395 0 0 1 570.96 597.65c-16.695 0-27.811-11.116-27.811-27.811s11.16-27.812 27.811-27.812a111.597 111.597 0 0 0 111.29-111.289z m111.289 0c0-16.695 11.115-27.811 27.81-27.811s27.812 11.116 27.812 27.811c0 152.984-125.217 278.201-278.2 278.201-16.696 0-27.812-11.16-27.812-27.855s11.16-27.811 27.811-27.811c122.405 0 222.579-100.174 222.579-222.535zM417.976 528.1c30.623 30.579 33.391 77.898 5.58 111.289L337.31 747.866c-27.811 36.16-80.666 41.74-116.869 13.928-2.768-2.812-5.536-2.812-5.536-5.58l-75.13-75.13c-72.318-72.318 30.623-267.041 217.042-453.417C543.15 41.292 735.06-58.88 807.378 10.67l75.13 75.13c33.392 33.391 33.392 86.246 0 116.825l-5.536 5.58-108.52 86.246c-33.348 27.81-80.623 25.043-111.246-5.58l-47.275-47.319c-50.087 30.623-94.593 64.014-133.564 102.941-38.927 38.971-72.275 83.478-102.898 133.565l44.507 50.043z m-38.927 75.13c8.348-11.16 8.348-27.855-2.812-36.203l-61.202-63.97a29.569 29.569 0 0 1-5.536-33.392 721.425 721.425 0 0 1 122.405-164.1 721.512 721.512 0 0 1 164.1-122.405 29.569 29.569 0 0 1 33.39 5.58l63.971 63.97c11.16 11.116 25.043 11.116 36.203 2.769l108.477-89.014s2.768 0 2.768-2.768a26.889 26.889 0 0 0 0-38.971l-75.13-75.13c-36.115-36.115-208.606 55.666-372.75 217.042-164.1 161.332-253.114 336.548-216.955 372.75l77.854 77.899c11.16 8.348 30.623 8.348 38.971-5.58l86.246-108.521z"  horiz-adv-x="1024" />

    


  </font>
</defs>
</svg>
